<?xml version="1.0" encoding="UTF-8" standalone="no"?>
<!DOCTYPE svg PUBLIC "-//W3C//DTD SVG 1.1//EN"
 "http://www.w3.org/Graphics/SVG/1.1/DTD/svg11.dtd">
<!-- Generated by graphviz version 2.42.3 (20191010.1750)
 -->
<!-- Title: snakemake_dag Pages: 1 -->
<svg width="1054pt" height="692pt"
 viewBox="0.00 0.00 1054.00 692.00" xmlns="http://www.w3.org/2000/svg" xmlns:xlink="http://www.w3.org/1999/xlink">
<g id="graph0" class="graph" transform="scale(1 1) rotate(0) translate(4 688)">
<title>snakemake_dag</title>
<polygon fill="white" stroke="transparent" points="-4,4 -4,-688 1050,-688 1050,4 -4,4"/>
<!-- 0 -->
<g id="node1" class="node">
<title>0</title>
<path fill="none" stroke="#568ad8" stroke-width="2" d="M561,-36C561,-36 531,-36 531,-36 525,-36 519,-30 519,-24 519,-24 519,-12 519,-12 519,-6 525,0 531,0 531,0 561,0 561,0 567,0 573,-6 573,-12 573,-12 573,-24 573,-24 573,-30 567,-36 561,-36"/>
<text text-anchor="middle" x="546" y="-15.5" font-family="sans" font-size="10.00">all</text>
</g>
<!-- 1 -->
<g id="node2" class="node">
<title>1</title>
<path fill="none" stroke="#d87556" stroke-width="2" d="M561,-180C561,-180 531,-180 531,-180 525,-180 519,-174 519,-168 519,-168 519,-156 519,-156 519,-150 525,-144 531,-144 531,-144 561,-144 561,-144 567,-144 573,-150 573,-156 573,-156 573,-168 573,-168 573,-174 567,-180 561,-180"/>
<text text-anchor="middle" x="546" y="-159.5" font-family="sans" font-size="10.00">join_all</text>
</g>
<!-- 1&#45;&gt;0 -->
<g id="edge1" class="edge">
<title>1&#45;&gt;0</title>
<path fill="none" stroke="grey" stroke-width="2" d="M538.93,-143.67C535.16,-133.47 530.91,-120.22 529,-108 526.53,-92.19 526.53,-87.81 529,-72 530.36,-63.31 532.9,-54.1 535.61,-45.84"/>
<polygon fill="grey" stroke="grey" stroke-width="2" points="538.94,-46.93 538.93,-36.33 532.33,-44.62 538.94,-46.93"/>
</g>
<!-- 40 -->
<g id="node41" class="node">
<title>40</title>
<path fill="none" stroke="#d88d56" stroke-width="2" d="M613.5,-108C613.5,-108 550.5,-108 550.5,-108 544.5,-108 538.5,-102 538.5,-96 538.5,-96 538.5,-84 538.5,-84 538.5,-78 544.5,-72 550.5,-72 550.5,-72 613.5,-72 613.5,-72 619.5,-72 625.5,-78 625.5,-84 625.5,-84 625.5,-96 625.5,-96 625.5,-102 619.5,-108 613.5,-108"/>
<text text-anchor="middle" x="582" y="-87.5" font-family="sans" font-size="10.00">join_metadata</text>
</g>
<!-- 1&#45;&gt;40 -->
<g id="edge55" class="edge">
<title>1&#45;&gt;40</title>
<path fill="none" stroke="grey" stroke-width="2" d="M554.9,-143.7C559,-135.73 563.95,-126.1 568.49,-117.26"/>
<polygon fill="grey" stroke="grey" stroke-width="2" points="571.74,-118.6 573.2,-108.1 565.52,-115.4 571.74,-118.6"/>
</g>
<!-- 2 -->
<g id="node3" class="node">
<title>2</title>
<path fill="none" stroke="#56d8d0" stroke-width="2" stroke-dasharray="5,2" d="M233.5,-252C233.5,-252 190.5,-252 190.5,-252 184.5,-252 178.5,-246 178.5,-240 178.5,-240 178.5,-228 178.5,-228 178.5,-222 184.5,-216 190.5,-216 190.5,-216 233.5,-216 233.5,-216 239.5,-216 245.5,-222 245.5,-228 245.5,-228 245.5,-240 245.5,-240 245.5,-246 239.5,-252 233.5,-252"/>
<text text-anchor="middle" x="212" y="-231.5" font-family="sans" font-size="10.00">ensure_all</text>
</g>
<!-- 2&#45;&gt;1 -->
<g id="edge3" class="edge">
<title>2&#45;&gt;1</title>
<path fill="none" stroke="grey" stroke-width="2" d="M245.55,-225.97C308.36,-212.8 443.24,-184.54 508.76,-170.8"/>
<polygon fill="grey" stroke="grey" stroke-width="2" points="509.59,-174.21 518.66,-168.73 508.15,-167.36 509.59,-174.21"/>
</g>
<!-- 3 -->
<g id="node4" class="node">
<title>3</title>
<path fill="none" stroke="#56d882" stroke-width="2" stroke-dasharray="5,2" d="M42,-324C42,-324 12,-324 12,-324 6,-324 0,-318 0,-312 0,-312 0,-300 0,-300 0,-294 6,-288 12,-288 12,-288 42,-288 42,-288 48,-288 54,-294 54,-300 54,-300 54,-312 54,-312 54,-318 48,-324 42,-324"/>
<text text-anchor="middle" x="27" y="-303.5" font-family="sans" font-size="10.00">pfam2</text>
</g>
<!-- 3&#45;&gt;2 -->
<g id="edge6" class="edge">
<title>3&#45;&gt;2</title>
<path fill="none" stroke="grey" stroke-width="2" d="M54.39,-291.72C57.28,-290.42 60.19,-289.16 63,-288 98,-273.55 138.53,-259.29 168.48,-249.21"/>
<polygon fill="grey" stroke="grey" stroke-width="2" points="169.83,-252.44 178.2,-245.95 167.61,-245.81 169.83,-252.44"/>
</g>
<!-- 4 -->
<g id="node5" class="node">
<title>4</title>
<path fill="none" stroke="#56c1d8" stroke-width="2" stroke-dasharray="5,2" d="M52,-396C52,-396 22,-396 22,-396 16,-396 10,-390 10,-384 10,-384 10,-372 10,-372 10,-366 16,-360 22,-360 22,-360 52,-360 52,-360 58,-360 64,-366 64,-372 64,-372 64,-384 64,-384 64,-390 58,-396 52,-396"/>
<text text-anchor="middle" x="37" y="-375.5" font-family="sans" font-size="10.00">pfam</text>
</g>
<!-- 4&#45;&gt;3 -->
<g id="edge11" class="edge">
<title>4&#45;&gt;3</title>
<path fill="none" stroke="grey" stroke-width="2" d="M34.53,-359.7C33.43,-351.98 32.1,-342.71 30.87,-334.11"/>
<polygon fill="grey" stroke="grey" stroke-width="2" points="34.32,-333.51 29.44,-324.1 27.39,-334.5 34.32,-333.51"/>
</g>
<!-- 5 -->
<g id="node6" class="node">
<title>5</title>
<path fill="none" stroke="#d8c356" stroke-width="2" stroke-dasharray="5,2" d="M218,-468C218,-468 188,-468 188,-468 182,-468 176,-462 176,-456 176,-456 176,-444 176,-444 176,-438 182,-432 188,-432 188,-432 218,-432 218,-432 224,-432 230,-438 230,-444 230,-444 230,-456 230,-456 230,-462 224,-468 218,-468"/>
<text text-anchor="middle" x="203" y="-447.5" font-family="sans" font-size="10.00">prokka</text>
</g>
<!-- 5&#45;&gt;4 -->
<g id="edge12" class="edge">
<title>5&#45;&gt;4</title>
<path fill="none" stroke="grey" stroke-width="2" d="M175.93,-438.46C151.37,-428.79 113.98,-413.79 73.33,-396.04"/>
<polygon fill="grey" stroke="grey" stroke-width="2" points="74.62,-392.78 64.05,-391.97 71.8,-399.19 74.62,-392.78"/>
</g>
<!-- 13 -->
<g id="node14" class="node">
<title>13</title>
<path fill="none" stroke="#56d863" stroke-width="2" stroke-dasharray="5,2" d="M124,-396C124,-396 94,-396 94,-396 88,-396 82,-390 82,-384 82,-384 82,-372 82,-372 82,-366 88,-360 94,-360 94,-360 124,-360 124,-360 130,-360 136,-366 136,-372 136,-372 136,-384 136,-384 136,-390 130,-396 124,-396"/>
<text text-anchor="middle" x="109" y="-375.5" font-family="sans" font-size="10.00">cog</text>
</g>
<!-- 5&#45;&gt;13 -->
<g id="edge20" class="edge">
<title>5&#45;&gt;13</title>
<path fill="none" stroke="grey" stroke-width="2" d="M179.76,-431.7C167.81,-422.8 153.08,-411.82 140.15,-402.2"/>
<polygon fill="grey" stroke="grey" stroke-width="2" points="142.08,-399.27 131.97,-396.1 137.9,-404.88 142.08,-399.27"/>
</g>
<!-- 14 -->
<g id="node15" class="node">
<title>14</title>
<path fill="none" stroke="#b6d856" stroke-width="2" stroke-dasharray="5,2" d="M192,-324C192,-324 156,-324 156,-324 150,-324 144,-318 144,-312 144,-312 144,-300 144,-300 144,-294 150,-288 156,-288 156,-288 192,-288 192,-288 198,-288 204,-294 204,-300 204,-300 204,-312 204,-312 204,-318 198,-324 192,-324"/>
<text text-anchor="middle" x="174" y="-303.5" font-family="sans" font-size="10.00">cazymes</text>
</g>
<!-- 5&#45;&gt;14 -->
<g id="edge21" class="edge">
<title>5&#45;&gt;14</title>
<path fill="none" stroke="grey" stroke-width="2" d="M199.5,-431.87C194.54,-407.56 185.4,-362.82 179.52,-334.01"/>
<polygon fill="grey" stroke="grey" stroke-width="2" points="182.94,-333.29 177.51,-324.19 176.08,-334.69 182.94,-333.29"/>
</g>
<!-- 15 -->
<g id="node16" class="node">
<title>15</title>
<path fill="none" stroke="#80d856" stroke-width="2" stroke-dasharray="5,2" d="M264,-324C264,-324 234,-324 234,-324 228,-324 222,-318 222,-312 222,-312 222,-300 222,-300 222,-294 228,-288 234,-288 234,-288 264,-288 264,-288 270,-288 276,-294 276,-300 276,-300 276,-312 276,-312 276,-318 270,-324 264,-324"/>
<text text-anchor="middle" x="249" y="-303.5" font-family="sans" font-size="10.00">kegg</text>
</g>
<!-- 5&#45;&gt;15 -->
<g id="edge22" class="edge">
<title>5&#45;&gt;15</title>
<path fill="none" stroke="grey" stroke-width="2" d="M208.55,-431.87C216.42,-407.56 230.92,-362.82 240.25,-334.01"/>
<polygon fill="grey" stroke="grey" stroke-width="2" points="243.68,-334.78 243.43,-324.19 237.02,-332.62 243.68,-334.78"/>
</g>
<!-- 17 -->
<g id="node18" class="node">
<title>17</title>
<path fill="none" stroke="#ced856" stroke-width="2" stroke-dasharray="5,2" d="M329,-396C329,-396 299,-396 299,-396 293,-396 287,-390 287,-384 287,-384 287,-372 287,-372 287,-366 293,-360 299,-360 299,-360 329,-360 329,-360 335,-360 341,-366 341,-372 341,-372 341,-384 341,-384 341,-390 335,-396 329,-396"/>
<text text-anchor="middle" x="314" y="-375.5" font-family="sans" font-size="10.00">merops</text>
</g>
<!-- 5&#45;&gt;17 -->
<g id="edge24" class="edge">
<title>5&#45;&gt;17</title>
<path fill="none" stroke="grey" stroke-width="2" d="M230.15,-431.88C244.53,-422.81 262.38,-411.55 277.91,-401.76"/>
<polygon fill="grey" stroke="grey" stroke-width="2" points="280.15,-404.48 286.74,-396.19 276.42,-398.56 280.15,-404.48"/>
</g>
<!-- 6 -->
<g id="node7" class="node">
<title>6</title>
<path fill="none" stroke="#61d856" stroke-width="2" stroke-dasharray="5,2" d="M310,-540C310,-540 108,-540 108,-540 102,-540 96,-534 96,-528 96,-528 96,-516 96,-516 96,-510 102,-504 108,-504 108,-504 310,-504 310,-504 316,-504 322,-510 322,-516 322,-516 322,-528 322,-528 322,-534 316,-540 310,-540"/>
<text text-anchor="middle" x="209" y="-525" font-family="sans" font-size="10.00">ensure_prokka_renamer</text>
<text text-anchor="middle" x="209" y="-514" font-family="sans" font-size="10.00">genome: GCA_002714325.1_ASM271432v1</text>
</g>
<!-- 6&#45;&gt;5 -->
<g id="edge13" class="edge">
<title>6&#45;&gt;5</title>
<path fill="none" stroke="grey" stroke-width="2" d="M207.52,-503.7C206.86,-495.98 206.06,-486.71 205.32,-478.11"/>
<polygon fill="grey" stroke="grey" stroke-width="2" points="208.81,-477.77 204.47,-468.1 201.83,-478.37 208.81,-477.77"/>
</g>
<!-- 7 -->
<g id="node8" class="node">
<title>7</title>
<path fill="none" stroke="#56a9d8" stroke-width="2" stroke-dasharray="5,2" d="M565,-612C565,-612 487,-612 487,-612 481,-612 475,-606 475,-600 475,-600 475,-588 475,-588 475,-582 481,-576 487,-576 487,-576 565,-576 565,-576 571,-576 577,-582 577,-588 577,-588 577,-600 577,-600 577,-606 571,-612 565,-612"/>
<text text-anchor="middle" x="526" y="-591.5" font-family="sans" font-size="10.00">ensure_download</text>
</g>
<!-- 7&#45;&gt;6 -->
<g id="edge14" class="edge">
<title>7&#45;&gt;6</title>
<path fill="none" stroke="grey" stroke-width="2" d="M474.72,-581.68C426.51,-571.03 353.4,-554.89 296.07,-542.23"/>
<polygon fill="grey" stroke="grey" stroke-width="2" points="296.8,-538.8 286.28,-540.06 295.29,-545.64 296.8,-538.8"/>
</g>
<!-- 22 -->
<g id="node23" class="node">
<title>22</title>
<path fill="none" stroke="#61d856" stroke-width="2" d="M688.5,-540C688.5,-540 363.5,-540 363.5,-540 357.5,-540 351.5,-534 351.5,-528 351.5,-528 351.5,-516 351.5,-516 351.5,-510 357.5,-504 363.5,-504 363.5,-504 688.5,-504 688.5,-504 694.5,-504 700.5,-510 700.5,-516 700.5,-516 700.5,-528 700.5,-528 700.5,-534 694.5,-540 688.5,-540"/>
<text text-anchor="middle" x="526" y="-525" font-family="sans" font-size="10.00">ensure_prokka_renamer</text>
<text text-anchor="middle" x="526" y="-514" font-family="sans" font-size="10.00">genome: GCA_900299485.1_Aquimarina_sp._strain_Aq349_genomic</text>
</g>
<!-- 7&#45;&gt;22 -->
<g id="edge33" class="edge">
<title>7&#45;&gt;22</title>
<path fill="none" stroke="grey" stroke-width="2" d="M526,-575.7C526,-567.98 526,-558.71 526,-550.11"/>
<polygon fill="grey" stroke="grey" stroke-width="2" points="529.5,-550.1 526,-540.1 522.5,-550.1 529.5,-550.1"/>
</g>
<!-- 33 -->
<g id="node34" class="node">
<title>33</title>
<path fill="none" stroke="#61d856" stroke-width="2" stroke-dasharray="5,2" d="M884.5,-540C884.5,-540 773.5,-540 773.5,-540 767.5,-540 761.5,-534 761.5,-528 761.5,-528 761.5,-516 761.5,-516 761.5,-510 767.5,-504 773.5,-504 773.5,-504 884.5,-504 884.5,-504 890.5,-504 896.5,-510 896.5,-516 896.5,-516 896.5,-528 896.5,-528 896.5,-534 890.5,-540 884.5,-540"/>
<text text-anchor="middle" x="829" y="-525" font-family="sans" font-size="10.00">ensure_prokka_renamer</text>
<text text-anchor="middle" x="829" y="-514" font-family="sans" font-size="10.00">genome: Aq_sp_Aq349</text>
</g>
<!-- 7&#45;&gt;33 -->
<g id="edge48" class="edge">
<title>7&#45;&gt;33</title>
<path fill="none" stroke="grey" stroke-width="2" d="M577.06,-581.2C624.77,-570.18 696.67,-553.57 751.47,-540.91"/>
<polygon fill="grey" stroke="grey" stroke-width="2" points="752.53,-544.26 761.49,-538.6 750.96,-537.44 752.53,-544.26"/>
</g>
<!-- 8 -->
<g id="node9" class="node">
<title>8</title>
<path fill="none" stroke="#d85656" stroke-width="2" stroke-dasharray="5,2" d="M385.5,-684C385.5,-684 314.5,-684 314.5,-684 308.5,-684 302.5,-678 302.5,-672 302.5,-672 302.5,-660 302.5,-660 302.5,-654 308.5,-648 314.5,-648 314.5,-648 385.5,-648 385.5,-648 391.5,-648 397.5,-654 397.5,-660 397.5,-660 397.5,-672 397.5,-672 397.5,-678 391.5,-684 385.5,-684"/>
<text text-anchor="middle" x="350" y="-663.5" font-family="sans" font-size="10.00">download_pfam</text>
</g>
<!-- 8&#45;&gt;7 -->
<g id="edge15" class="edge">
<title>8&#45;&gt;7</title>
<path fill="none" stroke="grey" stroke-width="2" d="M393.05,-647.88C417.33,-638.22 447.84,-626.09 473.51,-615.88"/>
<polygon fill="grey" stroke="grey" stroke-width="2" points="475.09,-619.02 483.09,-612.07 472.5,-612.51 475.09,-619.02"/>
</g>
<!-- 9 -->
<g id="node10" class="node">
<title>9</title>
<path fill="none" stroke="#56d8b9" stroke-width="2" stroke-dasharray="5,2" d="M510,-684C510,-684 428,-684 428,-684 422,-684 416,-678 416,-672 416,-672 416,-660 416,-660 416,-654 422,-648 428,-648 428,-648 510,-648 510,-648 516,-648 522,-654 522,-660 522,-660 522,-672 522,-672 522,-678 516,-684 510,-684"/>
<text text-anchor="middle" x="469" y="-663.5" font-family="sans" font-size="10.00">download_merops</text>
</g>
<!-- 9&#45;&gt;7 -->
<g id="edge16" class="edge">
<title>9&#45;&gt;7</title>
<path fill="none" stroke="grey" stroke-width="2" d="M483.09,-647.7C489.92,-639.3 498.26,-629.07 505.76,-619.86"/>
<polygon fill="grey" stroke="grey" stroke-width="2" points="508.47,-622.07 512.07,-612.1 503.04,-617.65 508.47,-622.07"/>
</g>
<!-- 10 -->
<g id="node11" class="node">
<title>10</title>
<path fill="none" stroke="#5673d8" stroke-width="2" stroke-dasharray="5,2" d="M614,-684C614,-684 552,-684 552,-684 546,-684 540,-678 540,-672 540,-672 540,-660 540,-660 540,-654 546,-648 552,-648 552,-648 614,-648 614,-648 620,-648 626,-654 626,-660 626,-660 626,-672 626,-672 626,-678 620,-684 614,-684"/>
<text text-anchor="middle" x="583" y="-663.5" font-family="sans" font-size="10.00">download_cog</text>
</g>
<!-- 10&#45;&gt;7 -->
<g id="edge17" class="edge">
<title>10&#45;&gt;7</title>
<path fill="none" stroke="grey" stroke-width="2" d="M568.91,-647.7C562.08,-639.3 553.74,-629.07 546.24,-619.86"/>
<polygon fill="grey" stroke="grey" stroke-width="2" points="548.96,-617.65 539.93,-612.1 543.53,-622.07 548.96,-617.65"/>
</g>
<!-- 11 -->
<g id="node12" class="node">
<title>11</title>
<path fill="none" stroke="#97d856" stroke-width="2" stroke-dasharray="5,2" d="M745.5,-684C745.5,-684 656.5,-684 656.5,-684 650.5,-684 644.5,-678 644.5,-672 644.5,-672 644.5,-660 644.5,-660 644.5,-654 650.5,-648 656.5,-648 656.5,-648 745.5,-648 745.5,-648 751.5,-648 757.5,-654 757.5,-660 757.5,-660 757.5,-672 757.5,-672 757.5,-678 751.5,-684 745.5,-684"/>
<text text-anchor="middle" x="701" y="-663.5" font-family="sans" font-size="10.00">download_cazymes</text>
</g>
<!-- 11&#45;&gt;7 -->
<g id="edge18" class="edge">
<title>11&#45;&gt;7</title>
<path fill="none" stroke="grey" stroke-width="2" d="M658.19,-647.88C634.05,-638.22 603.72,-626.09 578.19,-615.88"/>
<polygon fill="grey" stroke="grey" stroke-width="2" points="579.26,-612.53 568.67,-612.07 576.66,-619.03 579.26,-612.53"/>
</g>
<!-- 12 -->
<g id="node13" class="node">
<title>12</title>
<path fill="none" stroke="#d8ac56" stroke-width="2" stroke-dasharray="5,2" d="M114,-324C114,-324 84,-324 84,-324 78,-324 72,-318 72,-312 72,-312 72,-300 72,-300 72,-294 78,-288 84,-288 84,-288 114,-288 114,-288 120,-288 126,-294 126,-300 126,-300 126,-312 126,-312 126,-318 120,-324 114,-324"/>
<text text-anchor="middle" x="99" y="-303.5" font-family="sans" font-size="10.00">cog2</text>
</g>
<!-- 12&#45;&gt;2 -->
<g id="edge7" class="edge">
<title>12&#45;&gt;2</title>
<path fill="none" stroke="grey" stroke-width="2" d="M126.07,-288.23C140.94,-279.02 159.59,-267.47 175.71,-257.48"/>
<polygon fill="grey" stroke="grey" stroke-width="2" points="177.71,-260.36 184.37,-252.12 174.03,-254.41 177.71,-260.36"/>
</g>
<!-- 13&#45;&gt;12 -->
<g id="edge19" class="edge">
<title>13&#45;&gt;12</title>
<path fill="none" stroke="grey" stroke-width="2" d="M106.53,-359.7C105.43,-351.98 104.1,-342.71 102.87,-334.11"/>
<polygon fill="grey" stroke="grey" stroke-width="2" points="106.32,-333.51 101.44,-324.1 99.39,-334.5 106.32,-333.51"/>
</g>
<!-- 14&#45;&gt;2 -->
<g id="edge8" class="edge">
<title>14&#45;&gt;2</title>
<path fill="none" stroke="grey" stroke-width="2" d="M183.39,-287.7C187.76,-279.64 193.06,-269.89 197.9,-260.98"/>
<polygon fill="grey" stroke="grey" stroke-width="2" points="201.02,-262.56 202.71,-252.1 194.87,-259.22 201.02,-262.56"/>
</g>
<!-- 15&#45;&gt;2 -->
<g id="edge9" class="edge">
<title>15&#45;&gt;2</title>
<path fill="none" stroke="grey" stroke-width="2" d="M239.85,-287.7C235.6,-279.64 230.44,-269.89 225.73,-260.98"/>
<polygon fill="grey" stroke="grey" stroke-width="2" points="228.81,-259.31 221.04,-252.1 222.62,-262.58 228.81,-259.31"/>
</g>
<!-- 16 -->
<g id="node17" class="node">
<title>16</title>
<path fill="none" stroke="#56d89a" stroke-width="2" stroke-dasharray="5,2" d="M341.5,-324C341.5,-324 306.5,-324 306.5,-324 300.5,-324 294.5,-318 294.5,-312 294.5,-312 294.5,-300 294.5,-300 294.5,-294 300.5,-288 306.5,-288 306.5,-288 341.5,-288 341.5,-288 347.5,-288 353.5,-294 353.5,-300 353.5,-300 353.5,-312 353.5,-312 353.5,-318 347.5,-324 341.5,-324"/>
<text text-anchor="middle" x="324" y="-303.5" font-family="sans" font-size="10.00">merops2</text>
</g>
<!-- 16&#45;&gt;2 -->
<g id="edge10" class="edge">
<title>16&#45;&gt;2</title>
<path fill="none" stroke="grey" stroke-width="2" d="M296.6,-287.88C282.09,-278.81 264.08,-267.55 248.41,-257.76"/>
<polygon fill="grey" stroke="grey" stroke-width="2" points="249.84,-254.52 239.5,-252.19 246.13,-260.46 249.84,-254.52"/>
</g>
<!-- 17&#45;&gt;16 -->
<g id="edge23" class="edge">
<title>17&#45;&gt;16</title>
<path fill="none" stroke="grey" stroke-width="2" d="M316.47,-359.7C317.57,-351.98 318.9,-342.71 320.13,-334.11"/>
<polygon fill="grey" stroke="grey" stroke-width="2" points="323.61,-334.5 321.56,-324.1 316.68,-333.51 323.61,-334.5"/>
</g>
<!-- 18 -->
<g id="node19" class="node">
<title>18</title>
<path fill="none" stroke="#56d8d0" stroke-width="2" d="M567.5,-252C567.5,-252 524.5,-252 524.5,-252 518.5,-252 512.5,-246 512.5,-240 512.5,-240 512.5,-228 512.5,-228 512.5,-222 518.5,-216 524.5,-216 524.5,-216 567.5,-216 567.5,-216 573.5,-216 579.5,-222 579.5,-228 579.5,-228 579.5,-240 579.5,-240 579.5,-246 573.5,-252 567.5,-252"/>
<text text-anchor="middle" x="546" y="-231.5" font-family="sans" font-size="10.00">ensure_all</text>
</g>
<!-- 18&#45;&gt;1 -->
<g id="edge4" class="edge">
<title>18&#45;&gt;1</title>
<path fill="none" stroke="grey" stroke-width="2" d="M546,-215.7C546,-207.98 546,-198.71 546,-190.11"/>
<polygon fill="grey" stroke="grey" stroke-width="2" points="549.5,-190.1 546,-180.1 542.5,-190.1 549.5,-190.1"/>
</g>
<!-- 19 -->
<g id="node20" class="node">
<title>19</title>
<path fill="none" stroke="#56d882" stroke-width="2" d="M414,-324C414,-324 384,-324 384,-324 378,-324 372,-318 372,-312 372,-312 372,-300 372,-300 372,-294 378,-288 384,-288 384,-288 414,-288 414,-288 420,-288 426,-294 426,-300 426,-300 426,-312 426,-312 426,-318 420,-324 414,-324"/>
<text text-anchor="middle" x="399" y="-303.5" font-family="sans" font-size="10.00">pfam2</text>
</g>
<!-- 19&#45;&gt;18 -->
<g id="edge25" class="edge">
<title>19&#45;&gt;18</title>
<path fill="none" stroke="grey" stroke-width="2" d="M426.31,-292C447.88,-281.73 478.38,-267.2 503.19,-255.39"/>
<polygon fill="grey" stroke="grey" stroke-width="2" points="504.87,-258.46 512.39,-251 501.86,-252.14 504.87,-258.46"/>
</g>
<!-- 20 -->
<g id="node21" class="node">
<title>20</title>
<path fill="none" stroke="#56c1d8" stroke-width="2" d="M414,-396C414,-396 384,-396 384,-396 378,-396 372,-390 372,-384 372,-384 372,-372 372,-372 372,-366 378,-360 384,-360 384,-360 414,-360 414,-360 420,-360 426,-366 426,-372 426,-372 426,-384 426,-384 426,-390 420,-396 414,-396"/>
<text text-anchor="middle" x="399" y="-375.5" font-family="sans" font-size="10.00">pfam</text>
</g>
<!-- 20&#45;&gt;19 -->
<g id="edge30" class="edge">
<title>20&#45;&gt;19</title>
<path fill="none" stroke="grey" stroke-width="2" d="M399,-359.7C399,-351.98 399,-342.71 399,-334.11"/>
<polygon fill="grey" stroke="grey" stroke-width="2" points="402.5,-334.1 399,-324.1 395.5,-334.1 402.5,-334.1"/>
</g>
<!-- 21 -->
<g id="node22" class="node">
<title>21</title>
<path fill="none" stroke="#d8c356" stroke-width="2" d="M541,-468C541,-468 511,-468 511,-468 505,-468 499,-462 499,-456 499,-456 499,-444 499,-444 499,-438 505,-432 511,-432 511,-432 541,-432 541,-432 547,-432 553,-438 553,-444 553,-444 553,-456 553,-456 553,-462 547,-468 541,-468"/>
<text text-anchor="middle" x="526" y="-447.5" font-family="sans" font-size="10.00">prokka</text>
</g>
<!-- 21&#45;&gt;20 -->
<g id="edge31" class="edge">
<title>21&#45;&gt;20</title>
<path fill="none" stroke="grey" stroke-width="2" d="M498.76,-433.98C480.17,-423.74 455.36,-410.07 435.13,-398.92"/>
<polygon fill="grey" stroke="grey" stroke-width="2" points="436.65,-395.75 426.2,-393.99 433.27,-401.88 436.65,-395.75"/>
</g>
<!-- 24 -->
<g id="node25" class="node">
<title>24</title>
<path fill="none" stroke="#56d863" stroke-width="2" d="M486,-396C486,-396 456,-396 456,-396 450,-396 444,-390 444,-384 444,-384 444,-372 444,-372 444,-366 450,-360 456,-360 456,-360 486,-360 486,-360 492,-360 498,-366 498,-372 498,-372 498,-384 498,-384 498,-390 492,-396 486,-396"/>
<text text-anchor="middle" x="471" y="-375.5" font-family="sans" font-size="10.00">cog</text>
</g>
<!-- 21&#45;&gt;24 -->
<g id="edge35" class="edge">
<title>21&#45;&gt;24</title>
<path fill="none" stroke="grey" stroke-width="2" d="M512.4,-431.7C505.88,-423.39 497.93,-413.28 490.75,-404.14"/>
<polygon fill="grey" stroke="grey" stroke-width="2" points="493.37,-401.81 484.44,-396.1 487.87,-406.13 493.37,-401.81"/>
</g>
<!-- 25 -->
<g id="node26" class="node">
<title>25</title>
<path fill="none" stroke="#b6d856" stroke-width="2" d="M564,-324C564,-324 528,-324 528,-324 522,-324 516,-318 516,-312 516,-312 516,-300 516,-300 516,-294 522,-288 528,-288 528,-288 564,-288 564,-288 570,-288 576,-294 576,-300 576,-300 576,-312 576,-312 576,-318 570,-324 564,-324"/>
<text text-anchor="middle" x="546" y="-303.5" font-family="sans" font-size="10.00">cazymes</text>
</g>
<!-- 21&#45;&gt;25 -->
<g id="edge36" class="edge">
<title>21&#45;&gt;25</title>
<path fill="none" stroke="grey" stroke-width="2" d="M528.41,-431.87C531.82,-407.67 538.08,-363.21 542.14,-334.39"/>
<polygon fill="grey" stroke="grey" stroke-width="2" points="545.65,-334.58 543.58,-324.19 538.72,-333.6 545.65,-334.58"/>
</g>
<!-- 26 -->
<g id="node27" class="node">
<title>26</title>
<path fill="none" stroke="#80d856" stroke-width="2" d="M596,-396C596,-396 566,-396 566,-396 560,-396 554,-390 554,-384 554,-384 554,-372 554,-372 554,-366 560,-360 566,-360 566,-360 596,-360 596,-360 602,-360 608,-366 608,-372 608,-372 608,-384 608,-384 608,-390 602,-396 596,-396"/>
<text text-anchor="middle" x="581" y="-375.5" font-family="sans" font-size="10.00">kegg</text>
</g>
<!-- 21&#45;&gt;26 -->
<g id="edge37" class="edge">
<title>21&#45;&gt;26</title>
<path fill="none" stroke="grey" stroke-width="2" d="M539.6,-431.7C546.12,-423.39 554.07,-413.28 561.25,-404.14"/>
<polygon fill="grey" stroke="grey" stroke-width="2" points="564.13,-406.13 567.56,-396.1 558.63,-401.81 564.13,-406.13"/>
</g>
<!-- 28 -->
<g id="node29" class="node">
<title>28</title>
<path fill="none" stroke="#ced856" stroke-width="2" d="M668,-396C668,-396 638,-396 638,-396 632,-396 626,-390 626,-384 626,-384 626,-372 626,-372 626,-366 632,-360 638,-360 638,-360 668,-360 668,-360 674,-360 680,-366 680,-372 680,-372 680,-384 680,-384 680,-390 674,-396 668,-396"/>
<text text-anchor="middle" x="653" y="-375.5" font-family="sans" font-size="10.00">merops</text>
</g>
<!-- 21&#45;&gt;28 -->
<g id="edge39" class="edge">
<title>21&#45;&gt;28</title>
<path fill="none" stroke="grey" stroke-width="2" d="M553.24,-433.98C571.83,-423.74 596.64,-410.07 616.87,-398.92"/>
<polygon fill="grey" stroke="grey" stroke-width="2" points="618.73,-401.88 625.8,-393.99 615.35,-395.75 618.73,-401.88"/>
</g>
<!-- 22&#45;&gt;21 -->
<g id="edge32" class="edge">
<title>22&#45;&gt;21</title>
<path fill="none" stroke="grey" stroke-width="2" d="M526,-503.7C526,-495.98 526,-486.71 526,-478.11"/>
<polygon fill="grey" stroke="grey" stroke-width="2" points="529.5,-478.1 526,-468.1 522.5,-478.1 529.5,-478.1"/>
</g>
<!-- 23 -->
<g id="node24" class="node">
<title>23</title>
<path fill="none" stroke="#d8ac56" stroke-width="2" d="M486,-324C486,-324 456,-324 456,-324 450,-324 444,-318 444,-312 444,-312 444,-300 444,-300 444,-294 450,-288 456,-288 456,-288 486,-288 486,-288 492,-288 498,-294 498,-300 498,-300 498,-312 498,-312 498,-318 492,-324 486,-324"/>
<text text-anchor="middle" x="471" y="-303.5" font-family="sans" font-size="10.00">cog2</text>
</g>
<!-- 23&#45;&gt;18 -->
<g id="edge26" class="edge">
<title>23&#45;&gt;18</title>
<path fill="none" stroke="grey" stroke-width="2" d="M489.54,-287.7C498.8,-279.05 510.16,-268.45 520.26,-259.03"/>
<polygon fill="grey" stroke="grey" stroke-width="2" points="522.75,-261.49 527.67,-252.1 517.98,-256.37 522.75,-261.49"/>
</g>
<!-- 24&#45;&gt;23 -->
<g id="edge34" class="edge">
<title>24&#45;&gt;23</title>
<path fill="none" stroke="grey" stroke-width="2" d="M471,-359.7C471,-351.98 471,-342.71 471,-334.11"/>
<polygon fill="grey" stroke="grey" stroke-width="2" points="474.5,-334.1 471,-324.1 467.5,-334.1 474.5,-334.1"/>
</g>
<!-- 25&#45;&gt;18 -->
<g id="edge27" class="edge">
<title>25&#45;&gt;18</title>
<path fill="none" stroke="grey" stroke-width="2" d="M546,-287.7C546,-279.98 546,-270.71 546,-262.11"/>
<polygon fill="grey" stroke="grey" stroke-width="2" points="549.5,-262.1 546,-252.1 542.5,-262.1 549.5,-262.1"/>
</g>
<!-- 26&#45;&gt;18 -->
<g id="edge28" class="edge">
<title>26&#45;&gt;18</title>
<path fill="none" stroke="grey" stroke-width="2" d="M585.31,-359.78C589.09,-341.49 592.86,-311.95 585,-288 581.69,-277.91 575.63,-268.15 569.27,-259.82"/>
<polygon fill="grey" stroke="grey" stroke-width="2" points="571.92,-257.54 562.89,-252.01 566.5,-261.97 571.92,-257.54"/>
</g>
<!-- 27 -->
<g id="node28" class="node">
<title>27</title>
<path fill="none" stroke="#56d89a" stroke-width="2" d="M679.5,-324C679.5,-324 644.5,-324 644.5,-324 638.5,-324 632.5,-318 632.5,-312 632.5,-312 632.5,-300 632.5,-300 632.5,-294 638.5,-288 644.5,-288 644.5,-288 679.5,-288 679.5,-288 685.5,-288 691.5,-294 691.5,-300 691.5,-300 691.5,-312 691.5,-312 691.5,-318 685.5,-324 679.5,-324"/>
<text text-anchor="middle" x="662" y="-303.5" font-family="sans" font-size="10.00">merops2</text>
</g>
<!-- 27&#45;&gt;18 -->
<g id="edge29" class="edge">
<title>27&#45;&gt;18</title>
<path fill="none" stroke="grey" stroke-width="2" d="M633.62,-287.88C618.46,-278.72 599.59,-267.34 583.26,-257.48"/>
<polygon fill="grey" stroke="grey" stroke-width="2" points="584.86,-254.36 574.49,-252.19 581.24,-260.35 584.86,-254.36"/>
</g>
<!-- 28&#45;&gt;27 -->
<g id="edge38" class="edge">
<title>28&#45;&gt;27</title>
<path fill="none" stroke="grey" stroke-width="2" d="M655.22,-359.7C656.22,-351.98 657.41,-342.71 658.51,-334.11"/>
<polygon fill="grey" stroke="grey" stroke-width="2" points="662,-334.47 659.8,-324.1 655.05,-333.58 662,-334.47"/>
</g>
<!-- 29 -->
<g id="node30" class="node">
<title>29</title>
<path fill="none" stroke="#56d8d0" stroke-width="2" d="M863.5,-252C863.5,-252 820.5,-252 820.5,-252 814.5,-252 808.5,-246 808.5,-240 808.5,-240 808.5,-228 808.5,-228 808.5,-222 814.5,-216 820.5,-216 820.5,-216 863.5,-216 863.5,-216 869.5,-216 875.5,-222 875.5,-228 875.5,-228 875.5,-240 875.5,-240 875.5,-246 869.5,-252 863.5,-252"/>
<text text-anchor="middle" x="842" y="-231.5" font-family="sans" font-size="10.00">ensure_all</text>
</g>
<!-- 29&#45;&gt;1 -->
<g id="edge5" class="edge">
<title>29&#45;&gt;1</title>
<path fill="none" stroke="grey" stroke-width="2" d="M808.33,-225.04C752.44,-211.82 640.93,-185.45 582.94,-171.74"/>
<polygon fill="grey" stroke="grey" stroke-width="2" points="583.64,-168.3 573.1,-169.41 582.03,-175.12 583.64,-168.3"/>
</g>
<!-- 30 -->
<g id="node31" class="node">
<title>30</title>
<path fill="none" stroke="#56d882" stroke-width="2" d="M753,-324C753,-324 723,-324 723,-324 717,-324 711,-318 711,-312 711,-312 711,-300 711,-300 711,-294 717,-288 723,-288 723,-288 753,-288 753,-288 759,-288 765,-294 765,-300 765,-300 765,-312 765,-312 765,-318 759,-324 753,-324"/>
<text text-anchor="middle" x="738" y="-303.5" font-family="sans" font-size="10.00">pfam2</text>
</g>
<!-- 30&#45;&gt;29 -->
<g id="edge40" class="edge">
<title>30&#45;&gt;29</title>
<path fill="none" stroke="grey" stroke-width="2" d="M763.44,-287.88C776.79,-278.89 793.32,-267.76 807.78,-258.03"/>
<polygon fill="grey" stroke="grey" stroke-width="2" points="810.12,-260.68 816.46,-252.19 806.21,-254.87 810.12,-260.68"/>
</g>
<!-- 31 -->
<g id="node32" class="node">
<title>31</title>
<path fill="none" stroke="#56c1d8" stroke-width="2" d="M740,-396C740,-396 710,-396 710,-396 704,-396 698,-390 698,-384 698,-384 698,-372 698,-372 698,-366 704,-360 710,-360 710,-360 740,-360 740,-360 746,-360 752,-366 752,-372 752,-372 752,-384 752,-384 752,-390 746,-396 740,-396"/>
<text text-anchor="middle" x="725" y="-375.5" font-family="sans" font-size="10.00">pfam</text>
</g>
<!-- 31&#45;&gt;30 -->
<g id="edge45" class="edge">
<title>31&#45;&gt;30</title>
<path fill="none" stroke="grey" stroke-width="2" d="M728.21,-359.7C729.65,-351.98 731.37,-342.71 732.96,-334.11"/>
<polygon fill="grey" stroke="grey" stroke-width="2" points="736.44,-334.58 734.82,-324.1 729.56,-333.3 736.44,-334.58"/>
</g>
<!-- 32 -->
<g id="node33" class="node">
<title>32</title>
<path fill="none" stroke="#d8c356" stroke-width="2" d="M849,-468C849,-468 819,-468 819,-468 813,-468 807,-462 807,-456 807,-456 807,-444 807,-444 807,-438 813,-432 819,-432 819,-432 849,-432 849,-432 855,-432 861,-438 861,-444 861,-444 861,-456 861,-456 861,-462 855,-468 849,-468"/>
<text text-anchor="middle" x="834" y="-447.5" font-family="sans" font-size="10.00">prokka</text>
</g>
<!-- 32&#45;&gt;31 -->
<g id="edge46" class="edge">
<title>32&#45;&gt;31</title>
<path fill="none" stroke="grey" stroke-width="2" d="M807.34,-431.88C793.22,-422.81 775.69,-411.55 760.44,-401.76"/>
<polygon fill="grey" stroke="grey" stroke-width="2" points="762.07,-398.65 751.77,-396.19 758.29,-404.54 762.07,-398.65"/>
</g>
<!-- 35 -->
<g id="node36" class="node">
<title>35</title>
<path fill="none" stroke="#56d863" stroke-width="2" d="M812,-396C812,-396 782,-396 782,-396 776,-396 770,-390 770,-384 770,-384 770,-372 770,-372 770,-366 776,-360 782,-360 782,-360 812,-360 812,-360 818,-360 824,-366 824,-372 824,-372 824,-384 824,-384 824,-390 818,-396 812,-396"/>
<text text-anchor="middle" x="797" y="-375.5" font-family="sans" font-size="10.00">cog</text>
</g>
<!-- 32&#45;&gt;35 -->
<g id="edge50" class="edge">
<title>32&#45;&gt;35</title>
<path fill="none" stroke="grey" stroke-width="2" d="M824.85,-431.7C820.6,-423.64 815.44,-413.89 810.73,-404.98"/>
<polygon fill="grey" stroke="grey" stroke-width="2" points="813.81,-403.31 806.04,-396.1 807.62,-406.58 813.81,-403.31"/>
</g>
<!-- 36 -->
<g id="node37" class="node">
<title>36</title>
<path fill="none" stroke="#b6d856" stroke-width="2" d="M890,-396C890,-396 854,-396 854,-396 848,-396 842,-390 842,-384 842,-384 842,-372 842,-372 842,-366 848,-360 854,-360 854,-360 890,-360 890,-360 896,-360 902,-366 902,-372 902,-372 902,-384 902,-384 902,-390 896,-396 890,-396"/>
<text text-anchor="middle" x="872" y="-375.5" font-family="sans" font-size="10.00">cazymes</text>
</g>
<!-- 32&#45;&gt;36 -->
<g id="edge51" class="edge">
<title>32&#45;&gt;36</title>
<path fill="none" stroke="grey" stroke-width="2" d="M843.39,-431.7C847.76,-423.64 853.06,-413.89 857.9,-404.98"/>
<polygon fill="grey" stroke="grey" stroke-width="2" points="861.02,-406.56 862.71,-396.1 854.87,-403.22 861.02,-406.56"/>
</g>
<!-- 37 -->
<g id="node38" class="node">
<title>37</title>
<path fill="none" stroke="#80d856" stroke-width="2" d="M962,-396C962,-396 932,-396 932,-396 926,-396 920,-390 920,-384 920,-384 920,-372 920,-372 920,-366 926,-360 932,-360 932,-360 962,-360 962,-360 968,-360 974,-366 974,-372 974,-372 974,-384 974,-384 974,-390 968,-396 962,-396"/>
<text text-anchor="middle" x="947" y="-375.5" font-family="sans" font-size="10.00">kegg</text>
</g>
<!-- 32&#45;&gt;37 -->
<g id="edge52" class="edge">
<title>32&#45;&gt;37</title>
<path fill="none" stroke="grey" stroke-width="2" d="M861.07,-432.23C876.05,-422.95 894.87,-411.29 911.07,-401.26"/>
<polygon fill="grey" stroke="grey" stroke-width="2" points="913.1,-404.11 919.76,-395.87 909.42,-398.16 913.1,-404.11"/>
</g>
<!-- 39 -->
<g id="node40" class="node">
<title>39</title>
<path fill="none" stroke="#ced856" stroke-width="2" d="M1034,-396C1034,-396 1004,-396 1004,-396 998,-396 992,-390 992,-384 992,-384 992,-372 992,-372 992,-366 998,-360 1004,-360 1004,-360 1034,-360 1034,-360 1040,-360 1046,-366 1046,-372 1046,-372 1046,-384 1046,-384 1046,-390 1040,-396 1034,-396"/>
<text text-anchor="middle" x="1019" y="-375.5" font-family="sans" font-size="10.00">merops</text>
</g>
<!-- 32&#45;&gt;39 -->
<g id="edge54" class="edge">
<title>32&#45;&gt;39</title>
<path fill="none" stroke="grey" stroke-width="2" d="M861.22,-440.22C889.45,-430.93 934.98,-415.38 982.16,-396.17"/>
<polygon fill="grey" stroke="grey" stroke-width="2" points="983.69,-399.32 991.61,-392.28 981.03,-392.85 983.69,-399.32"/>
</g>
<!-- 33&#45;&gt;32 -->
<g id="edge47" class="edge">
<title>33&#45;&gt;32</title>
<path fill="none" stroke="grey" stroke-width="2" d="M830.24,-503.7C830.79,-495.98 831.45,-486.71 832.06,-478.11"/>
<polygon fill="grey" stroke="grey" stroke-width="2" points="835.56,-478.33 832.78,-468.1 828.57,-477.83 835.56,-478.33"/>
</g>
<!-- 34 -->
<g id="node35" class="node">
<title>34</title>
<path fill="none" stroke="#d8ac56" stroke-width="2" d="M829,-324C829,-324 799,-324 799,-324 793,-324 787,-318 787,-312 787,-312 787,-300 787,-300 787,-294 793,-288 799,-288 799,-288 829,-288 829,-288 835,-288 841,-294 841,-300 841,-300 841,-312 841,-312 841,-318 835,-324 829,-324"/>
<text text-anchor="middle" x="814" y="-303.5" font-family="sans" font-size="10.00">cog2</text>
</g>
<!-- 34&#45;&gt;29 -->
<g id="edge41" class="edge">
<title>34&#45;&gt;29</title>
<path fill="none" stroke="grey" stroke-width="2" d="M820.92,-287.7C824.07,-279.81 827.88,-270.3 831.38,-261.55"/>
<polygon fill="grey" stroke="grey" stroke-width="2" points="834.69,-262.69 835.16,-252.1 828.19,-260.09 834.69,-262.69"/>
</g>
<!-- 35&#45;&gt;34 -->
<g id="edge49" class="edge">
<title>35&#45;&gt;34</title>
<path fill="none" stroke="grey" stroke-width="2" d="M801.2,-359.7C803.1,-351.9 805.38,-342.51 807.48,-333.83"/>
<polygon fill="grey" stroke="grey" stroke-width="2" points="810.89,-334.65 809.85,-324.1 804.08,-333 810.89,-334.65"/>
</g>
<!-- 36&#45;&gt;29 -->
<g id="edge42" class="edge">
<title>36&#45;&gt;29</title>
<path fill="none" stroke="grey" stroke-width="2" d="M868.38,-359.87C863.25,-335.56 853.79,-290.82 847.71,-262.01"/>
<polygon fill="grey" stroke="grey" stroke-width="2" points="851.12,-261.25 845.63,-252.19 844.27,-262.7 851.12,-261.25"/>
</g>
<!-- 37&#45;&gt;29 -->
<g id="edge43" class="edge">
<title>37&#45;&gt;29</title>
<path fill="none" stroke="grey" stroke-width="2" d="M934.33,-359.87C916.05,-335.14 882.11,-289.24 860.86,-260.51"/>
<polygon fill="grey" stroke="grey" stroke-width="2" points="863.47,-258.15 854.71,-252.19 857.84,-262.31 863.47,-258.15"/>
</g>
<!-- 38 -->
<g id="node39" class="node">
<title>38</title>
<path fill="none" stroke="#56d89a" stroke-width="2" d="M1020.5,-324C1020.5,-324 985.5,-324 985.5,-324 979.5,-324 973.5,-318 973.5,-312 973.5,-312 973.5,-300 973.5,-300 973.5,-294 979.5,-288 985.5,-288 985.5,-288 1020.5,-288 1020.5,-288 1026.5,-288 1032.5,-294 1032.5,-300 1032.5,-300 1032.5,-312 1032.5,-312 1032.5,-318 1026.5,-324 1020.5,-324"/>
<text text-anchor="middle" x="1003" y="-303.5" font-family="sans" font-size="10.00">merops2</text>
</g>
<!-- 38&#45;&gt;29 -->
<g id="edge44" class="edge">
<title>38&#45;&gt;29</title>
<path fill="none" stroke="grey" stroke-width="2" d="M973.47,-292.16C948.7,-281.39 913,-265.87 885.05,-253.72"/>
<polygon fill="grey" stroke="grey" stroke-width="2" points="886.08,-250.35 875.52,-249.57 883.29,-256.77 886.08,-250.35"/>
</g>
<!-- 39&#45;&gt;38 -->
<g id="edge53" class="edge">
<title>39&#45;&gt;38</title>
<path fill="none" stroke="grey" stroke-width="2" d="M1015.04,-359.7C1013.28,-351.98 1011.16,-342.71 1009.2,-334.11"/>
<polygon fill="grey" stroke="grey" stroke-width="2" points="1012.55,-333.07 1006.91,-324.1 1005.73,-334.63 1012.55,-333.07"/>
</g>
<!-- 40&#45;&gt;0 -->
<g id="edge2" class="edge">
<title>40&#45;&gt;0</title>
<path fill="none" stroke="grey" stroke-width="2" d="M573.1,-71.7C569,-63.73 564.05,-54.1 559.51,-45.26"/>
<polygon fill="grey" stroke="grey" stroke-width="2" points="562.48,-43.4 554.8,-36.1 556.26,-46.6 562.48,-43.4"/>
</g>
</g>
</svg>
