<?xml version="1.0" encoding="UTF-8" standalone="no"?>
<!DOCTYPE svg PUBLIC "-//W3C//DTD SVG 1.1//EN"
 "http://www.w3.org/Graphics/SVG/1.1/DTD/svg11.dtd">
<!-- Generated by graphviz version 2.42.3 (20191010.1750)
 -->
<!-- Title: snakemake_dag Pages: 1 -->
<svg width="263pt" height="404pt"
 viewBox="0.00 0.00 263.00 404.00" xmlns="http://www.w3.org/2000/svg" xmlns:xlink="http://www.w3.org/1999/xlink">
<g id="graph0" class="graph" transform="scale(1 1) rotate(0) translate(4 400)">
<title>snakemake_dag</title>
<polygon fill="white" stroke="transparent" points="-4,4 -4,-400 259,-400 259,4 -4,4"/>
<!-- 0 -->
<g id="node1" class="node">
<title>0</title>
<path fill="none" stroke="#d85656" stroke-width="2" d="M151,-36C151,-36 121,-36 121,-36 115,-36 109,-30 109,-24 109,-24 109,-12 109,-12 109,-6 115,0 121,0 121,0 151,0 151,0 157,0 163,-6 163,-12 163,-12 163,-24 163,-24 163,-30 157,-36 151,-36"/>
<text text-anchor="middle" x="136" y="-15.5" font-family="sans" font-size="10.00">all</text>
</g>
<!-- 1 -->
<g id="node2" class="node">
<title>1</title>
<path fill="none" stroke="#afd856" stroke-width="2" d="M151,-108C151,-108 121,-108 121,-108 115,-108 109,-102 109,-96 109,-96 109,-84 109,-84 109,-78 115,-72 121,-72 121,-72 151,-72 151,-72 157,-72 163,-78 163,-84 163,-84 163,-96 163,-96 163,-102 157,-108 151,-108"/>
<text text-anchor="middle" x="136" y="-87.5" font-family="sans" font-size="10.00">join_all</text>
</g>
<!-- 1&#45;&gt;0 -->
<g id="edge1" class="edge">
<title>1&#45;&gt;0</title>
<path fill="none" stroke="grey" stroke-width="2" d="M136,-71.7C136,-63.98 136,-54.71 136,-46.11"/>
<polygon fill="grey" stroke="grey" stroke-width="2" points="139.5,-46.1 136,-36.1 132.5,-46.1 139.5,-46.1"/>
</g>
<!-- 2 -->
<g id="node3" class="node">
<title>2</title>
<path fill="none" stroke="#56d873" stroke-width="2" d="M157.5,-180C157.5,-180 114.5,-180 114.5,-180 108.5,-180 102.5,-174 102.5,-168 102.5,-168 102.5,-156 102.5,-156 102.5,-150 108.5,-144 114.5,-144 114.5,-144 157.5,-144 157.5,-144 163.5,-144 169.5,-150 169.5,-156 169.5,-156 169.5,-168 169.5,-168 169.5,-174 163.5,-180 157.5,-180"/>
<text text-anchor="middle" x="136" y="-159.5" font-family="sans" font-size="10.00">ensure_all</text>
</g>
<!-- 2&#45;&gt;1 -->
<g id="edge2" class="edge">
<title>2&#45;&gt;1</title>
<path fill="none" stroke="grey" stroke-width="2" d="M136,-143.7C136,-135.98 136,-126.71 136,-118.11"/>
<polygon fill="grey" stroke="grey" stroke-width="2" points="139.5,-118.1 136,-108.1 132.5,-118.1 139.5,-118.1"/>
</g>
<!-- 3 -->
<g id="node4" class="node">
<title>3</title>
<path fill="none" stroke="#d8cb56" stroke-width="2" d="M42,-252C42,-252 12,-252 12,-252 6,-252 0,-246 0,-240 0,-240 0,-228 0,-228 0,-222 6,-216 12,-216 12,-216 42,-216 42,-216 48,-216 54,-222 54,-228 54,-228 54,-240 54,-240 54,-246 48,-252 42,-252"/>
<text text-anchor="middle" x="27" y="-231.5" font-family="sans" font-size="10.00">pfam</text>
</g>
<!-- 3&#45;&gt;2 -->
<g id="edge3" class="edge">
<title>3&#45;&gt;2</title>
<path fill="none" stroke="grey" stroke-width="2" d="M53.66,-215.88C67.78,-206.81 85.31,-195.55 100.56,-185.76"/>
<polygon fill="grey" stroke="grey" stroke-width="2" points="102.71,-188.54 109.23,-180.19 98.93,-182.65 102.71,-188.54"/>
</g>
<!-- 4 -->
<g id="node5" class="node">
<title>4</title>
<path fill="none" stroke="#56d8a9" stroke-width="2" d="M151,-396C151,-396 121,-396 121,-396 115,-396 109,-390 109,-384 109,-384 109,-372 109,-372 109,-366 115,-360 121,-360 121,-360 151,-360 151,-360 157,-360 163,-366 163,-372 163,-372 163,-384 163,-384 163,-390 157,-396 151,-396"/>
<text text-anchor="middle" x="136" y="-375.5" font-family="sans" font-size="10.00">prokka</text>
</g>
<!-- 4&#45;&gt;3 -->
<g id="edge7" class="edge">
<title>4&#45;&gt;3</title>
<path fill="none" stroke="grey" stroke-width="2" d="M111.23,-359.84C98.7,-350.3 83.89,-337.62 73,-324 57.81,-305 45.49,-280.19 37.44,-261.6"/>
<polygon fill="grey" stroke="grey" stroke-width="2" points="40.61,-260.11 33.51,-252.24 34.15,-262.82 40.61,-260.11"/>
</g>
<!-- 6 -->
<g id="node7" class="node">
<title>6</title>
<path fill="none" stroke="#56c9d8" stroke-width="2" d="M124,-324C124,-324 94,-324 94,-324 88,-324 82,-318 82,-312 82,-312 82,-300 82,-300 82,-294 88,-288 94,-288 94,-288 124,-288 124,-288 130,-288 136,-294 136,-300 136,-300 136,-312 136,-312 136,-318 130,-324 124,-324"/>
<text text-anchor="middle" x="109" y="-303.5" font-family="sans" font-size="10.00">cog</text>
</g>
<!-- 4&#45;&gt;6 -->
<g id="edge9" class="edge">
<title>4&#45;&gt;6</title>
<path fill="none" stroke="grey" stroke-width="2" d="M129.33,-359.7C126.29,-351.81 122.62,-342.3 119.24,-333.55"/>
<polygon fill="grey" stroke="grey" stroke-width="2" points="122.46,-332.17 115.6,-324.1 115.93,-334.69 122.46,-332.17"/>
</g>
<!-- 7 -->
<g id="node8" class="node">
<title>7</title>
<path fill="none" stroke="#70d856" stroke-width="2" d="M192,-252C192,-252 156,-252 156,-252 150,-252 144,-246 144,-240 144,-240 144,-228 144,-228 144,-222 150,-216 156,-216 156,-216 192,-216 192,-216 198,-216 204,-222 204,-228 204,-228 204,-240 204,-240 204,-246 198,-252 192,-252"/>
<text text-anchor="middle" x="174" y="-231.5" font-family="sans" font-size="10.00">cazymes</text>
</g>
<!-- 4&#45;&gt;7 -->
<g id="edge10" class="edge">
<title>4&#45;&gt;7</title>
<path fill="none" stroke="grey" stroke-width="2" d="M140.58,-359.87C147.09,-335.56 159.06,-290.82 166.77,-262.01"/>
<polygon fill="grey" stroke="grey" stroke-width="2" points="170.2,-262.75 169.4,-252.19 163.43,-260.94 170.2,-262.75"/>
</g>
<!-- 8 -->
<g id="node9" class="node">
<title>8</title>
<path fill="none" stroke="#d88d56" stroke-width="2" d="M243,-324C243,-324 213,-324 213,-324 207,-324 201,-318 201,-312 201,-312 201,-300 201,-300 201,-294 207,-288 213,-288 213,-288 243,-288 243,-288 249,-288 255,-294 255,-300 255,-300 255,-312 255,-312 255,-318 249,-324 243,-324"/>
<text text-anchor="middle" x="228" y="-303.5" font-family="sans" font-size="10.00">kegg</text>
</g>
<!-- 4&#45;&gt;8 -->
<g id="edge11" class="edge">
<title>4&#45;&gt;8</title>
<path fill="none" stroke="grey" stroke-width="2" d="M158.74,-359.7C170.44,-350.8 184.86,-339.82 197.51,-330.2"/>
<polygon fill="grey" stroke="grey" stroke-width="2" points="199.68,-332.94 205.52,-324.1 195.44,-327.37 199.68,-332.94"/>
</g>
<!-- 5 -->
<g id="node6" class="node">
<title>5</title>
<path fill="none" stroke="#5692d8" stroke-width="2" d="M114,-252C114,-252 84,-252 84,-252 78,-252 72,-246 72,-240 72,-240 72,-228 72,-228 72,-222 78,-216 84,-216 84,-216 114,-216 114,-216 120,-216 126,-222 126,-228 126,-228 126,-240 126,-240 126,-246 120,-252 114,-252"/>
<text text-anchor="middle" x="99" y="-231.5" font-family="sans" font-size="10.00">cog2</text>
</g>
<!-- 5&#45;&gt;2 -->
<g id="edge6" class="edge">
<title>5&#45;&gt;2</title>
<path fill="none" stroke="grey" stroke-width="2" d="M108.15,-215.7C112.4,-207.64 117.56,-197.89 122.27,-188.98"/>
<polygon fill="grey" stroke="grey" stroke-width="2" points="125.38,-190.58 126.96,-180.1 119.19,-187.31 125.38,-190.58"/>
</g>
<!-- 6&#45;&gt;5 -->
<g id="edge8" class="edge">
<title>6&#45;&gt;5</title>
<path fill="none" stroke="grey" stroke-width="2" d="M106.53,-287.7C105.43,-279.98 104.1,-270.71 102.87,-262.11"/>
<polygon fill="grey" stroke="grey" stroke-width="2" points="106.32,-261.51 101.44,-252.1 99.39,-262.5 106.32,-261.51"/>
</g>
<!-- 7&#45;&gt;2 -->
<g id="edge5" class="edge">
<title>7&#45;&gt;2</title>
<path fill="none" stroke="grey" stroke-width="2" d="M164.61,-215.7C160.24,-207.64 154.94,-197.89 150.1,-188.98"/>
<polygon fill="grey" stroke="grey" stroke-width="2" points="153.13,-187.22 145.29,-180.1 146.98,-190.56 153.13,-187.22"/>
</g>
<!-- 8&#45;&gt;2 -->
<g id="edge4" class="edge">
<title>8&#45;&gt;2</title>
<path fill="none" stroke="grey" stroke-width="2" d="M228.93,-287.87C229.14,-268.84 226.98,-237.93 213,-216 204.57,-202.77 191.52,-191.97 178.55,-183.66"/>
<polygon fill="grey" stroke="grey" stroke-width="2" points="180.01,-180.45 169.64,-178.3 176.4,-186.45 180.01,-180.45"/>
</g>
</g>
</svg>
