<?xml version="1.0" encoding="UTF-8" standalone="no"?>
<!DOCTYPE svg PUBLIC "-//W3C//DTD SVG 1.1//EN"
 "http://www.w3.org/Graphics/SVG/1.1/DTD/svg11.dtd">
<!-- Generated by graphviz version 2.42.3 (20191010.1750)
 -->
<!-- Title: snakemake_dag Pages: 1 -->
<svg width="832pt" height="548pt"
 viewBox="0.00 0.00 832.00 548.00" xmlns="http://www.w3.org/2000/svg" xmlns:xlink="http://www.w3.org/1999/xlink">
<g id="graph0" class="graph" transform="scale(1 1) rotate(0) translate(4 544)">
<title>snakemake_dag</title>
<polygon fill="white" stroke="transparent" points="-4,4 -4,-544 828,-544 828,4 -4,4"/>
<!-- 0 -->
<g id="node1" class="node">
<title>0</title>
<path fill="none" stroke="#5682d8" stroke-width="2" stroke-dasharray="5,2" d="M445,-36C445,-36 415,-36 415,-36 409,-36 403,-30 403,-24 403,-24 403,-12 403,-12 403,-6 409,0 415,0 415,0 445,0 445,0 451,0 457,-6 457,-12 457,-12 457,-24 457,-24 457,-30 451,-36 445,-36"/>
<text text-anchor="middle" x="430" y="-15.5" font-family="sans" font-size="10.00">all</text>
</g>
<!-- 1 -->
<g id="node2" class="node">
<title>1</title>
<path fill="none" stroke="#d8b456" stroke-width="2" stroke-dasharray="5,2" d="M445,-108C445,-108 415,-108 415,-108 409,-108 403,-102 403,-96 403,-96 403,-84 403,-84 403,-78 409,-72 415,-72 415,-72 445,-72 445,-72 451,-72 457,-78 457,-84 457,-84 457,-96 457,-96 457,-102 451,-108 445,-108"/>
<text text-anchor="middle" x="430" y="-87.5" font-family="sans" font-size="10.00">join_all</text>
</g>
<!-- 1&#45;&gt;0 -->
<g id="edge1" class="edge">
<title>1&#45;&gt;0</title>
<path fill="none" stroke="grey" stroke-width="2" d="M430,-71.7C430,-63.98 430,-54.71 430,-46.11"/>
<polygon fill="grey" stroke="grey" stroke-width="2" points="433.5,-46.1 430,-36.1 426.5,-46.1 433.5,-46.1"/>
</g>
<!-- 2 -->
<g id="node3" class="node">
<title>2</title>
<path fill="none" stroke="#d85656" stroke-width="2" stroke-dasharray="5,2" d="M446,-180C446,-180 414,-180 414,-180 408,-180 402,-174 402,-168 402,-168 402,-156 402,-156 402,-150 408,-144 414,-144 414,-144 446,-144 446,-144 452,-144 458,-150 458,-156 458,-156 458,-168 458,-168 458,-174 452,-180 446,-180"/>
<text text-anchor="middle" x="430" y="-159.5" font-family="sans" font-size="10.00">pre_join</text>
</g>
<!-- 2&#45;&gt;1 -->
<g id="edge2" class="edge">
<title>2&#45;&gt;1</title>
<path fill="none" stroke="grey" stroke-width="2" d="M430,-143.7C430,-135.98 430,-126.71 430,-118.11"/>
<polygon fill="grey" stroke="grey" stroke-width="2" points="433.5,-118.1 430,-108.1 426.5,-118.1 433.5,-118.1"/>
</g>
<!-- 3 -->
<g id="node4" class="node">
<title>3</title>
<path fill="none" stroke="#9fd856" stroke-width="2" stroke-dasharray="5,2" d="M195.5,-252C195.5,-252 152.5,-252 152.5,-252 146.5,-252 140.5,-246 140.5,-240 140.5,-240 140.5,-228 140.5,-228 140.5,-222 146.5,-216 152.5,-216 152.5,-216 195.5,-216 195.5,-216 201.5,-216 207.5,-222 207.5,-228 207.5,-228 207.5,-240 207.5,-240 207.5,-246 201.5,-252 195.5,-252"/>
<text text-anchor="middle" x="174" y="-231.5" font-family="sans" font-size="10.00">ensure_all</text>
</g>
<!-- 3&#45;&gt;2 -->
<g id="edge3" class="edge">
<title>3&#45;&gt;2</title>
<path fill="none" stroke="grey" stroke-width="2" d="M207.73,-223.78C255.36,-210.75 342.08,-187.04 391.95,-173.4"/>
<polygon fill="grey" stroke="grey" stroke-width="2" points="392.99,-176.75 401.71,-170.74 391.14,-170 392.99,-176.75"/>
</g>
<!-- 4 -->
<g id="node5" class="node">
<title>4</title>
<path fill="none" stroke="#d88556" stroke-width="2" stroke-dasharray="5,2" d="M42,-324C42,-324 12,-324 12,-324 6,-324 0,-318 0,-312 0,-312 0,-300 0,-300 0,-294 6,-288 12,-288 12,-288 42,-288 42,-288 48,-288 54,-294 54,-300 54,-300 54,-312 54,-312 54,-318 48,-324 42,-324"/>
<text text-anchor="middle" x="27" y="-303.5" font-family="sans" font-size="10.00">pfam</text>
</g>
<!-- 4&#45;&gt;3 -->
<g id="edge6" class="edge">
<title>4&#45;&gt;3</title>
<path fill="none" stroke="grey" stroke-width="2" d="M54.31,-292C75.88,-281.73 106.38,-267.2 131.19,-255.39"/>
<polygon fill="grey" stroke="grey" stroke-width="2" points="132.87,-258.46 140.39,-251 129.86,-252.14 132.87,-258.46"/>
</g>
<!-- 5 -->
<g id="node6" class="node">
<title>5</title>
<path fill="none" stroke="#56b1d8" stroke-width="2" stroke-dasharray="5,2" d="M189,-468C189,-468 85,-468 85,-468 79,-468 73,-462 73,-456 73,-456 73,-444 73,-444 73,-438 79,-432 85,-432 85,-432 189,-432 189,-432 195,-432 201,-438 201,-444 201,-444 201,-456 201,-456 201,-462 195,-468 189,-468"/>
<text text-anchor="middle" x="137" y="-453" font-family="sans" font-size="10.00">prokka</text>
<text text-anchor="middle" x="137" y="-442" font-family="sans" font-size="10.00">genome: Aq_sp_Aq349</text>
</g>
<!-- 5&#45;&gt;4 -->
<g id="edge10" class="edge">
<title>5&#45;&gt;4</title>
<path fill="none" stroke="grey" stroke-width="2" d="M109.32,-431.89C95.86,-422.55 80.22,-410.02 69,-396 53.98,-377.23 42.78,-352.2 35.74,-333.47"/>
<polygon fill="grey" stroke="grey" stroke-width="2" points="39.03,-332.28 32.35,-324.05 32.45,-334.65 39.03,-332.28"/>
</g>
<!-- 8 -->
<g id="node9" class="node">
<title>8</title>
<path fill="none" stroke="#56d8c9" stroke-width="2" stroke-dasharray="5,2" d="M120,-396C120,-396 90,-396 90,-396 84,-396 78,-390 78,-384 78,-384 78,-372 78,-372 78,-366 84,-360 90,-360 90,-360 120,-360 120,-360 126,-360 132,-366 132,-372 132,-372 132,-384 132,-384 132,-390 126,-396 120,-396"/>
<text text-anchor="middle" x="105" y="-375.5" font-family="sans" font-size="10.00">cog</text>
</g>
<!-- 5&#45;&gt;8 -->
<g id="edge13" class="edge">
<title>5&#45;&gt;8</title>
<path fill="none" stroke="grey" stroke-width="2" d="M129.09,-431.7C125.45,-423.73 121.05,-414.1 117.01,-405.26"/>
<polygon fill="grey" stroke="grey" stroke-width="2" points="120.16,-403.74 112.82,-396.1 113.79,-406.65 120.16,-403.74"/>
</g>
<!-- 9 -->
<g id="node10" class="node">
<title>9</title>
<path fill="none" stroke="#56d89a" stroke-width="2" stroke-dasharray="5,2" d="M192,-324C192,-324 156,-324 156,-324 150,-324 144,-318 144,-312 144,-312 144,-300 144,-300 144,-294 150,-288 156,-288 156,-288 192,-288 192,-288 198,-288 204,-294 204,-300 204,-300 204,-312 204,-312 204,-318 198,-324 192,-324"/>
<text text-anchor="middle" x="174" y="-303.5" font-family="sans" font-size="10.00">cazymes</text>
</g>
<!-- 5&#45;&gt;9 -->
<g id="edge14" class="edge">
<title>5&#45;&gt;9</title>
<path fill="none" stroke="grey" stroke-width="2" d="M141.46,-431.87C147.8,-407.56 159.46,-362.82 166.96,-334.01"/>
<polygon fill="grey" stroke="grey" stroke-width="2" points="170.39,-334.75 169.52,-324.19 163.61,-332.98 170.39,-334.75"/>
</g>
<!-- 10 -->
<g id="node11" class="node">
<title>10</title>
<path fill="none" stroke="#70d856" stroke-width="2" stroke-dasharray="5,2" d="M264,-324C264,-324 234,-324 234,-324 228,-324 222,-318 222,-312 222,-312 222,-300 222,-300 222,-294 228,-288 234,-288 234,-288 264,-288 264,-288 270,-288 276,-294 276,-300 276,-300 276,-312 276,-312 276,-318 270,-324 264,-324"/>
<text text-anchor="middle" x="249" y="-303.5" font-family="sans" font-size="10.00">kegg</text>
</g>
<!-- 5&#45;&gt;10 -->
<g id="edge15" class="edge">
<title>5&#45;&gt;10</title>
<path fill="none" stroke="grey" stroke-width="2" d="M150.51,-431.87C170.1,-407.03 206.53,-360.85 229.17,-332.14"/>
<polygon fill="grey" stroke="grey" stroke-width="2" points="232,-334.21 235.44,-324.19 226.5,-329.87 232,-334.21"/>
</g>
<!-- 6 -->
<g id="node7" class="node">
<title>6</title>
<path fill="none" stroke="#56d86b" stroke-width="2" stroke-dasharray="5,2" d="M198,-540C198,-540 76,-540 76,-540 70,-540 64,-534 64,-528 64,-528 64,-516 64,-516 64,-510 70,-504 76,-504 76,-504 198,-504 198,-504 204,-504 210,-510 210,-516 210,-516 210,-528 210,-528 210,-534 204,-540 198,-540"/>
<text text-anchor="middle" x="137" y="-525" font-family="sans" font-size="10.00">get_data</text>
<text text-anchor="middle" x="137" y="-514" font-family="sans" font-size="10.00">genome: Aq_sp_Aq349.fna</text>
</g>
<!-- 6&#45;&gt;5 -->
<g id="edge11" class="edge">
<title>6&#45;&gt;5</title>
<path fill="none" stroke="grey" stroke-width="2" d="M137,-503.7C137,-495.98 137,-486.71 137,-478.11"/>
<polygon fill="grey" stroke="grey" stroke-width="2" points="140.5,-478.1 137,-468.1 133.5,-478.1 140.5,-478.1"/>
</g>
<!-- 7 -->
<g id="node8" class="node">
<title>7</title>
<path fill="none" stroke="#ced856" stroke-width="2" stroke-dasharray="5,2" d="M114,-324C114,-324 84,-324 84,-324 78,-324 72,-318 72,-312 72,-312 72,-300 72,-300 72,-294 78,-288 84,-288 84,-288 114,-288 114,-288 120,-288 126,-294 126,-300 126,-300 126,-312 126,-312 126,-318 120,-324 114,-324"/>
<text text-anchor="middle" x="99" y="-303.5" font-family="sans" font-size="10.00">cog2</text>
</g>
<!-- 7&#45;&gt;3 -->
<g id="edge7" class="edge">
<title>7&#45;&gt;3</title>
<path fill="none" stroke="grey" stroke-width="2" d="M117.54,-287.7C126.8,-279.05 138.16,-268.45 148.26,-259.03"/>
<polygon fill="grey" stroke="grey" stroke-width="2" points="150.75,-261.49 155.67,-252.1 145.98,-256.37 150.75,-261.49"/>
</g>
<!-- 8&#45;&gt;7 -->
<g id="edge12" class="edge">
<title>8&#45;&gt;7</title>
<path fill="none" stroke="grey" stroke-width="2" d="M103.52,-359.7C102.86,-351.98 102.06,-342.71 101.32,-334.11"/>
<polygon fill="grey" stroke="grey" stroke-width="2" points="104.81,-333.77 100.47,-324.1 97.83,-334.37 104.81,-333.77"/>
</g>
<!-- 9&#45;&gt;3 -->
<g id="edge8" class="edge">
<title>9&#45;&gt;3</title>
<path fill="none" stroke="grey" stroke-width="2" d="M174,-287.7C174,-279.98 174,-270.71 174,-262.11"/>
<polygon fill="grey" stroke="grey" stroke-width="2" points="177.5,-262.1 174,-252.1 170.5,-262.1 177.5,-262.1"/>
</g>
<!-- 10&#45;&gt;3 -->
<g id="edge9" class="edge">
<title>10&#45;&gt;3</title>
<path fill="none" stroke="grey" stroke-width="2" d="M230.46,-287.7C221.2,-279.05 209.84,-268.45 199.74,-259.03"/>
<polygon fill="grey" stroke="grey" stroke-width="2" points="202.02,-256.37 192.33,-252.1 197.25,-261.49 202.02,-256.37"/>
</g>
<!-- 11 -->
<g id="node12" class="node">
<title>11</title>
<path fill="none" stroke="#9fd856" stroke-width="2" stroke-dasharray="5,2" d="M451.5,-252C451.5,-252 408.5,-252 408.5,-252 402.5,-252 396.5,-246 396.5,-240 396.5,-240 396.5,-228 396.5,-228 396.5,-222 402.5,-216 408.5,-216 408.5,-216 451.5,-216 451.5,-216 457.5,-216 463.5,-222 463.5,-228 463.5,-228 463.5,-240 463.5,-240 463.5,-246 457.5,-252 451.5,-252"/>
<text text-anchor="middle" x="430" y="-231.5" font-family="sans" font-size="10.00">ensure_all</text>
</g>
<!-- 11&#45;&gt;2 -->
<g id="edge4" class="edge">
<title>11&#45;&gt;2</title>
<path fill="none" stroke="grey" stroke-width="2" d="M430,-215.7C430,-207.98 430,-198.71 430,-190.11"/>
<polygon fill="grey" stroke="grey" stroke-width="2" points="433.5,-190.1 430,-180.1 426.5,-190.1 433.5,-190.1"/>
</g>
<!-- 12 -->
<g id="node13" class="node">
<title>12</title>
<path fill="none" stroke="#d88556" stroke-width="2" stroke-dasharray="5,2" d="M336,-324C336,-324 306,-324 306,-324 300,-324 294,-318 294,-312 294,-312 294,-300 294,-300 294,-294 300,-288 306,-288 306,-288 336,-288 336,-288 342,-288 348,-294 348,-300 348,-300 348,-312 348,-312 348,-318 342,-324 336,-324"/>
<text text-anchor="middle" x="321" y="-303.5" font-family="sans" font-size="10.00">pfam</text>
</g>
<!-- 12&#45;&gt;11 -->
<g id="edge16" class="edge">
<title>12&#45;&gt;11</title>
<path fill="none" stroke="grey" stroke-width="2" d="M347.66,-287.88C361.78,-278.81 379.31,-267.55 394.56,-257.76"/>
<polygon fill="grey" stroke="grey" stroke-width="2" points="396.71,-260.54 403.23,-252.19 392.93,-254.65 396.71,-260.54"/>
</g>
<!-- 13 -->
<g id="node14" class="node">
<title>13</title>
<path fill="none" stroke="#56b1d8" stroke-width="2" stroke-dasharray="5,2" d="M472,-468C472,-468 368,-468 368,-468 362,-468 356,-462 356,-456 356,-456 356,-444 356,-444 356,-438 362,-432 368,-432 368,-432 472,-432 472,-432 478,-432 484,-438 484,-444 484,-444 484,-456 484,-456 484,-462 478,-468 472,-468"/>
<text text-anchor="middle" x="420" y="-453" font-family="sans" font-size="10.00">prokka</text>
<text text-anchor="middle" x="420" y="-442" font-family="sans" font-size="10.00">genome: Aq_sp_Aq135</text>
</g>
<!-- 13&#45;&gt;12 -->
<g id="edge20" class="edge">
<title>13&#45;&gt;12</title>
<path fill="none" stroke="grey" stroke-width="2" d="M394.08,-431.77C381.55,-422.39 367.08,-409.88 357,-396 343.37,-377.22 333.92,-352.55 328.13,-333.94"/>
<polygon fill="grey" stroke="grey" stroke-width="2" points="331.47,-332.91 325.29,-324.31 324.76,-334.89 331.47,-332.91"/>
</g>
<!-- 16 -->
<g id="node17" class="node">
<title>16</title>
<path fill="none" stroke="#56d8c9" stroke-width="2" stroke-dasharray="5,2" d="M408,-396C408,-396 378,-396 378,-396 372,-396 366,-390 366,-384 366,-384 366,-372 366,-372 366,-366 372,-360 378,-360 378,-360 408,-360 408,-360 414,-360 420,-366 420,-372 420,-372 420,-384 420,-384 420,-390 414,-396 408,-396"/>
<text text-anchor="middle" x="393" y="-375.5" font-family="sans" font-size="10.00">cog</text>
</g>
<!-- 13&#45;&gt;16 -->
<g id="edge23" class="edge">
<title>13&#45;&gt;16</title>
<path fill="none" stroke="grey" stroke-width="2" d="M413.33,-431.7C410.29,-423.81 406.62,-414.3 403.24,-405.55"/>
<polygon fill="grey" stroke="grey" stroke-width="2" points="406.46,-404.17 399.6,-396.1 399.93,-406.69 406.46,-404.17"/>
</g>
<!-- 17 -->
<g id="node18" class="node">
<title>17</title>
<path fill="none" stroke="#56d89a" stroke-width="2" stroke-dasharray="5,2" d="M486,-324C486,-324 450,-324 450,-324 444,-324 438,-318 438,-312 438,-312 438,-300 438,-300 438,-294 444,-288 450,-288 450,-288 486,-288 486,-288 492,-288 498,-294 498,-300 498,-300 498,-312 498,-312 498,-318 492,-324 486,-324"/>
<text text-anchor="middle" x="468" y="-303.5" font-family="sans" font-size="10.00">cazymes</text>
</g>
<!-- 13&#45;&gt;17 -->
<g id="edge24" class="edge">
<title>13&#45;&gt;17</title>
<path fill="none" stroke="grey" stroke-width="2" d="M425.79,-431.87C434.01,-407.56 449.13,-362.82 458.87,-334.01"/>
<polygon fill="grey" stroke="grey" stroke-width="2" points="462.3,-334.78 462.19,-324.19 455.67,-332.54 462.3,-334.78"/>
</g>
<!-- 18 -->
<g id="node19" class="node">
<title>18</title>
<path fill="none" stroke="#70d856" stroke-width="2" stroke-dasharray="5,2" d="M518,-396C518,-396 488,-396 488,-396 482,-396 476,-390 476,-384 476,-384 476,-372 476,-372 476,-366 482,-360 488,-360 488,-360 518,-360 518,-360 524,-360 530,-366 530,-372 530,-372 530,-384 530,-384 530,-390 524,-396 518,-396"/>
<text text-anchor="middle" x="503" y="-375.5" font-family="sans" font-size="10.00">kegg</text>
</g>
<!-- 13&#45;&gt;18 -->
<g id="edge25" class="edge">
<title>13&#45;&gt;18</title>
<path fill="none" stroke="grey" stroke-width="2" d="M440.52,-431.7C450.87,-422.97 463.59,-412.24 474.84,-402.75"/>
<polygon fill="grey" stroke="grey" stroke-width="2" points="477.33,-405.23 482.72,-396.1 472.82,-399.88 477.33,-405.23"/>
</g>
<!-- 14 -->
<g id="node15" class="node">
<title>14</title>
<path fill="none" stroke="#56d86b" stroke-width="2" stroke-dasharray="5,2" d="M481,-540C481,-540 359,-540 359,-540 353,-540 347,-534 347,-528 347,-528 347,-516 347,-516 347,-510 353,-504 359,-504 359,-504 481,-504 481,-504 487,-504 493,-510 493,-516 493,-516 493,-528 493,-528 493,-534 487,-540 481,-540"/>
<text text-anchor="middle" x="420" y="-525" font-family="sans" font-size="10.00">get_data</text>
<text text-anchor="middle" x="420" y="-514" font-family="sans" font-size="10.00">genome: Aq_sp_Aq135.fna</text>
</g>
<!-- 14&#45;&gt;13 -->
<g id="edge21" class="edge">
<title>14&#45;&gt;13</title>
<path fill="none" stroke="grey" stroke-width="2" d="M420,-503.7C420,-495.98 420,-486.71 420,-478.11"/>
<polygon fill="grey" stroke="grey" stroke-width="2" points="423.5,-478.1 420,-468.1 416.5,-478.1 423.5,-478.1"/>
</g>
<!-- 15 -->
<g id="node16" class="node">
<title>15</title>
<path fill="none" stroke="#ced856" stroke-width="2" stroke-dasharray="5,2" d="M408,-324C408,-324 378,-324 378,-324 372,-324 366,-318 366,-312 366,-312 366,-300 366,-300 366,-294 372,-288 378,-288 378,-288 408,-288 408,-288 414,-288 420,-294 420,-300 420,-300 420,-312 420,-312 420,-318 414,-324 408,-324"/>
<text text-anchor="middle" x="393" y="-303.5" font-family="sans" font-size="10.00">cog2</text>
</g>
<!-- 15&#45;&gt;11 -->
<g id="edge17" class="edge">
<title>15&#45;&gt;11</title>
<path fill="none" stroke="grey" stroke-width="2" d="M402.15,-287.7C406.4,-279.64 411.56,-269.89 416.27,-260.98"/>
<polygon fill="grey" stroke="grey" stroke-width="2" points="419.38,-262.58 420.96,-252.1 413.19,-259.31 419.38,-262.58"/>
</g>
<!-- 16&#45;&gt;15 -->
<g id="edge22" class="edge">
<title>16&#45;&gt;15</title>
<path fill="none" stroke="grey" stroke-width="2" d="M393,-359.7C393,-351.98 393,-342.71 393,-334.11"/>
<polygon fill="grey" stroke="grey" stroke-width="2" points="396.5,-334.1 393,-324.1 389.5,-334.1 396.5,-334.1"/>
</g>
<!-- 17&#45;&gt;11 -->
<g id="edge18" class="edge">
<title>17&#45;&gt;11</title>
<path fill="none" stroke="grey" stroke-width="2" d="M458.61,-287.7C454.24,-279.64 448.94,-269.89 444.1,-260.98"/>
<polygon fill="grey" stroke="grey" stroke-width="2" points="447.13,-259.22 439.29,-252.1 440.98,-262.56 447.13,-259.22"/>
</g>
<!-- 18&#45;&gt;11 -->
<g id="edge19" class="edge">
<title>18&#45;&gt;11</title>
<path fill="none" stroke="grey" stroke-width="2" d="M508.66,-359.82C513.78,-341.03 518.87,-310.59 507,-288 499.44,-273.62 486.03,-262.39 472.49,-254.03"/>
<polygon fill="grey" stroke="grey" stroke-width="2" points="474.05,-250.9 463.63,-248.96 470.57,-256.97 474.05,-250.9"/>
</g>
<!-- 19 -->
<g id="node20" class="node">
<title>19</title>
<path fill="none" stroke="#9fd856" stroke-width="2" stroke-dasharray="5,2" d="M668.5,-252C668.5,-252 625.5,-252 625.5,-252 619.5,-252 613.5,-246 613.5,-240 613.5,-240 613.5,-228 613.5,-228 613.5,-222 619.5,-216 625.5,-216 625.5,-216 668.5,-216 668.5,-216 674.5,-216 680.5,-222 680.5,-228 680.5,-228 680.5,-240 680.5,-240 680.5,-246 674.5,-252 668.5,-252"/>
<text text-anchor="middle" x="647" y="-231.5" font-family="sans" font-size="10.00">ensure_all</text>
</g>
<!-- 19&#45;&gt;2 -->
<g id="edge5" class="edge">
<title>19&#45;&gt;2</title>
<path fill="none" stroke="grey" stroke-width="2" d="M613.09,-222.06C573.67,-209.35 508.78,-188.41 467.77,-175.19"/>
<polygon fill="grey" stroke="grey" stroke-width="2" points="468.74,-171.82 458.15,-172.08 466.59,-178.48 468.74,-171.82"/>
</g>
<!-- 20 -->
<g id="node21" class="node">
<title>20</title>
<path fill="none" stroke="#d88556" stroke-width="2" stroke-dasharray="5,2" d="M590,-396C590,-396 560,-396 560,-396 554,-396 548,-390 548,-384 548,-384 548,-372 548,-372 548,-366 554,-360 560,-360 560,-360 590,-360 590,-360 596,-360 602,-366 602,-372 602,-372 602,-384 602,-384 602,-390 596,-396 590,-396"/>
<text text-anchor="middle" x="575" y="-375.5" font-family="sans" font-size="10.00">pfam</text>
</g>
<!-- 20&#45;&gt;19 -->
<g id="edge26" class="edge">
<title>20&#45;&gt;19</title>
<path fill="none" stroke="grey" stroke-width="2" d="M580.73,-359.79C587.11,-341.49 598.2,-311.96 611,-288 615.98,-278.68 622.22,-268.98 628.1,-260.46"/>
<polygon fill="grey" stroke="grey" stroke-width="2" points="631.11,-262.27 634.03,-252.08 625.4,-258.22 631.11,-262.27"/>
</g>
<!-- 21 -->
<g id="node22" class="node">
<title>21</title>
<path fill="none" stroke="#56b1d8" stroke-width="2" stroke-dasharray="5,2" d="M736,-468C736,-468 632,-468 632,-468 626,-468 620,-462 620,-456 620,-456 620,-444 620,-444 620,-438 626,-432 632,-432 632,-432 736,-432 736,-432 742,-432 748,-438 748,-444 748,-444 748,-456 748,-456 748,-462 742,-468 736,-468"/>
<text text-anchor="middle" x="684" y="-453" font-family="sans" font-size="10.00">prokka</text>
<text text-anchor="middle" x="684" y="-442" font-family="sans" font-size="10.00">genome: Aq_sp_Aq107</text>
</g>
<!-- 21&#45;&gt;20 -->
<g id="edge30" class="edge">
<title>21&#45;&gt;20</title>
<path fill="none" stroke="grey" stroke-width="2" d="M657.34,-431.88C643.22,-422.81 625.69,-411.55 610.44,-401.76"/>
<polygon fill="grey" stroke="grey" stroke-width="2" points="612.07,-398.65 601.77,-396.19 608.29,-404.54 612.07,-398.65"/>
</g>
<!-- 24 -->
<g id="node25" class="node">
<title>24</title>
<path fill="none" stroke="#56d8c9" stroke-width="2" stroke-dasharray="5,2" d="M662,-396C662,-396 632,-396 632,-396 626,-396 620,-390 620,-384 620,-384 620,-372 620,-372 620,-366 626,-360 632,-360 632,-360 662,-360 662,-360 668,-360 674,-366 674,-372 674,-372 674,-384 674,-384 674,-390 668,-396 662,-396"/>
<text text-anchor="middle" x="647" y="-375.5" font-family="sans" font-size="10.00">cog</text>
</g>
<!-- 21&#45;&gt;24 -->
<g id="edge33" class="edge">
<title>21&#45;&gt;24</title>
<path fill="none" stroke="grey" stroke-width="2" d="M674.85,-431.7C670.6,-423.64 665.44,-413.89 660.73,-404.98"/>
<polygon fill="grey" stroke="grey" stroke-width="2" points="663.81,-403.31 656.04,-396.1 657.62,-406.58 663.81,-403.31"/>
</g>
<!-- 25 -->
<g id="node26" class="node">
<title>25</title>
<path fill="none" stroke="#56d89a" stroke-width="2" stroke-dasharray="5,2" d="M740,-396C740,-396 704,-396 704,-396 698,-396 692,-390 692,-384 692,-384 692,-372 692,-372 692,-366 698,-360 704,-360 704,-360 740,-360 740,-360 746,-360 752,-366 752,-372 752,-372 752,-384 752,-384 752,-390 746,-396 740,-396"/>
<text text-anchor="middle" x="722" y="-375.5" font-family="sans" font-size="10.00">cazymes</text>
</g>
<!-- 21&#45;&gt;25 -->
<g id="edge34" class="edge">
<title>21&#45;&gt;25</title>
<path fill="none" stroke="grey" stroke-width="2" d="M693.39,-431.7C697.76,-423.64 703.06,-413.89 707.9,-404.98"/>
<polygon fill="grey" stroke="grey" stroke-width="2" points="711.02,-406.56 712.71,-396.1 704.87,-403.22 711.02,-406.56"/>
</g>
<!-- 26 -->
<g id="node27" class="node">
<title>26</title>
<path fill="none" stroke="#70d856" stroke-width="2" stroke-dasharray="5,2" d="M812,-396C812,-396 782,-396 782,-396 776,-396 770,-390 770,-384 770,-384 770,-372 770,-372 770,-366 776,-360 782,-360 782,-360 812,-360 812,-360 818,-360 824,-366 824,-372 824,-372 824,-384 824,-384 824,-390 818,-396 812,-396"/>
<text text-anchor="middle" x="797" y="-375.5" font-family="sans" font-size="10.00">kegg</text>
</g>
<!-- 21&#45;&gt;26 -->
<g id="edge35" class="edge">
<title>21&#45;&gt;26</title>
<path fill="none" stroke="grey" stroke-width="2" d="M711.64,-431.88C726.53,-422.66 745.07,-411.17 761.06,-401.26"/>
<polygon fill="grey" stroke="grey" stroke-width="2" points="762.98,-404.19 769.64,-395.95 759.3,-398.24 762.98,-404.19"/>
</g>
<!-- 22 -->
<g id="node23" class="node">
<title>22</title>
<path fill="none" stroke="#56d86b" stroke-width="2" stroke-dasharray="5,2" d="M745,-540C745,-540 623,-540 623,-540 617,-540 611,-534 611,-528 611,-528 611,-516 611,-516 611,-510 617,-504 623,-504 623,-504 745,-504 745,-504 751,-504 757,-510 757,-516 757,-516 757,-528 757,-528 757,-534 751,-540 745,-540"/>
<text text-anchor="middle" x="684" y="-525" font-family="sans" font-size="10.00">get_data</text>
<text text-anchor="middle" x="684" y="-514" font-family="sans" font-size="10.00">genome: Aq_sp_Aq107.fna</text>
</g>
<!-- 22&#45;&gt;21 -->
<g id="edge31" class="edge">
<title>22&#45;&gt;21</title>
<path fill="none" stroke="grey" stroke-width="2" d="M684,-503.7C684,-495.98 684,-486.71 684,-478.11"/>
<polygon fill="grey" stroke="grey" stroke-width="2" points="687.5,-478.1 684,-468.1 680.5,-478.1 687.5,-478.1"/>
</g>
<!-- 23 -->
<g id="node24" class="node">
<title>23</title>
<path fill="none" stroke="#ced856" stroke-width="2" stroke-dasharray="5,2" d="M662,-324C662,-324 632,-324 632,-324 626,-324 620,-318 620,-312 620,-312 620,-300 620,-300 620,-294 626,-288 632,-288 632,-288 662,-288 662,-288 668,-288 674,-294 674,-300 674,-300 674,-312 674,-312 674,-318 668,-324 662,-324"/>
<text text-anchor="middle" x="647" y="-303.5" font-family="sans" font-size="10.00">cog2</text>
</g>
<!-- 23&#45;&gt;19 -->
<g id="edge27" class="edge">
<title>23&#45;&gt;19</title>
<path fill="none" stroke="grey" stroke-width="2" d="M647,-287.7C647,-279.98 647,-270.71 647,-262.11"/>
<polygon fill="grey" stroke="grey" stroke-width="2" points="650.5,-262.1 647,-252.1 643.5,-262.1 650.5,-262.1"/>
</g>
<!-- 24&#45;&gt;23 -->
<g id="edge32" class="edge">
<title>24&#45;&gt;23</title>
<path fill="none" stroke="grey" stroke-width="2" d="M647,-359.7C647,-351.98 647,-342.71 647,-334.11"/>
<polygon fill="grey" stroke="grey" stroke-width="2" points="650.5,-334.1 647,-324.1 643.5,-334.1 650.5,-334.1"/>
</g>
<!-- 25&#45;&gt;19 -->
<g id="edge28" class="edge">
<title>25&#45;&gt;19</title>
<path fill="none" stroke="grey" stroke-width="2" d="M715.56,-359.83C708.47,-341.57 696.3,-312.07 683,-288 677.89,-278.75 671.61,-269.07 665.74,-260.55"/>
<polygon fill="grey" stroke="grey" stroke-width="2" points="668.45,-258.32 659.84,-252.15 662.73,-262.35 668.45,-258.32"/>
</g>
<!-- 26&#45;&gt;19 -->
<g id="edge29" class="edge">
<title>26&#45;&gt;19</title>
<path fill="none" stroke="grey" stroke-width="2" d="M779.51,-359.79C761.1,-341.75 731.23,-312.66 705,-288 694.81,-278.42 683.47,-268 673.54,-258.96"/>
<polygon fill="grey" stroke="grey" stroke-width="2" points="675.69,-256.18 665.93,-252.05 670.98,-261.37 675.69,-256.18"/>
</g>
</g>
</svg>
