<?xml version="1.0" encoding="UTF-8" standalone="no"?>
<!DOCTYPE svg PUBLIC "-//W3C//DTD SVG 1.1//EN"
 "http://www.w3.org/Graphics/SVG/1.1/DTD/svg11.dtd">
<!-- Generated by graphviz version 2.42.3 (20191010.1750)
 -->
<!-- Title: snakemake_dag Pages: 1 -->
<svg width="529pt" height="404pt"
 viewBox="0.00 0.00 529.00 404.00" xmlns="http://www.w3.org/2000/svg" xmlns:xlink="http://www.w3.org/1999/xlink">
<g id="graph0" class="graph" transform="scale(1 1) rotate(0) translate(4 400)">
<title>snakemake_dag</title>
<polygon fill="white" stroke="transparent" points="-4,4 -4,-400 525,-400 525,4 -4,4"/>
<!-- 0 -->
<g id="node1" class="node">
<title>0</title>
<path fill="none" stroke="#56c1d8" stroke-width="2" d="M281,-36C281,-36 251,-36 251,-36 245,-36 239,-30 239,-24 239,-24 239,-12 239,-12 239,-6 245,0 251,0 251,0 281,0 281,0 287,0 293,-6 293,-12 293,-12 293,-24 293,-24 293,-30 287,-36 281,-36"/>
<text text-anchor="middle" x="266" y="-15.5" font-family="sans" font-size="10.00">all</text>
</g>
<!-- 1 -->
<g id="node2" class="node">
<title>1</title>
<path fill="none" stroke="#59d856" stroke-width="2" d="M281,-108C281,-108 251,-108 251,-108 245,-108 239,-102 239,-96 239,-96 239,-84 239,-84 239,-78 245,-72 251,-72 251,-72 281,-72 281,-72 287,-72 293,-78 293,-84 293,-84 293,-96 293,-96 293,-102 287,-108 281,-108"/>
<text text-anchor="middle" x="266" y="-87.5" font-family="sans" font-size="10.00">join_all</text>
</g>
<!-- 1&#45;&gt;0 -->
<g id="edge1" class="edge">
<title>1&#45;&gt;0</title>
<path fill="none" stroke="grey" stroke-width="2" d="M266,-71.7C266,-63.98 266,-54.71 266,-46.11"/>
<polygon fill="grey" stroke="grey" stroke-width="2" points="269.5,-46.1 266,-36.1 262.5,-46.1 269.5,-46.1"/>
</g>
<!-- 2 -->
<g id="node3" class="node">
<title>2</title>
<path fill="none" stroke="#d88d56" stroke-width="2" d="M195.5,-180C195.5,-180 152.5,-180 152.5,-180 146.5,-180 140.5,-174 140.5,-168 140.5,-168 140.5,-156 140.5,-156 140.5,-150 146.5,-144 152.5,-144 152.5,-144 195.5,-144 195.5,-144 201.5,-144 207.5,-150 207.5,-156 207.5,-156 207.5,-168 207.5,-168 207.5,-174 201.5,-180 195.5,-180"/>
<text text-anchor="middle" x="174" y="-159.5" font-family="sans" font-size="10.00">ensure_all</text>
</g>
<!-- 2&#45;&gt;1 -->
<g id="edge2" class="edge">
<title>2&#45;&gt;1</title>
<path fill="none" stroke="grey" stroke-width="2" d="M196.74,-143.7C208.44,-134.8 222.86,-123.82 235.51,-114.2"/>
<polygon fill="grey" stroke="grey" stroke-width="2" points="237.68,-116.94 243.52,-108.1 233.44,-111.37 237.68,-116.94"/>
</g>
<!-- 3 -->
<g id="node4" class="node">
<title>3</title>
<path fill="none" stroke="#bed856" stroke-width="2" d="M42,-252C42,-252 12,-252 12,-252 6,-252 0,-246 0,-240 0,-240 0,-228 0,-228 0,-222 6,-216 12,-216 12,-216 42,-216 42,-216 48,-216 54,-222 54,-228 54,-228 54,-240 54,-240 54,-246 48,-252 42,-252"/>
<text text-anchor="middle" x="27" y="-231.5" font-family="sans" font-size="10.00">pfam</text>
</g>
<!-- 3&#45;&gt;2 -->
<g id="edge4" class="edge">
<title>3&#45;&gt;2</title>
<path fill="none" stroke="grey" stroke-width="2" d="M54.31,-220C75.88,-209.73 106.38,-195.2 131.19,-183.39"/>
<polygon fill="grey" stroke="grey" stroke-width="2" points="132.87,-186.46 140.39,-179 129.86,-180.14 132.87,-186.46"/>
</g>
<!-- 4 -->
<g id="node5" class="node">
<title>4</title>
<path fill="none" stroke="#88d856" stroke-width="2" d="M197,-396C197,-396 93,-396 93,-396 87,-396 81,-390 81,-384 81,-384 81,-372 81,-372 81,-366 87,-360 93,-360 93,-360 197,-360 197,-360 203,-360 209,-366 209,-372 209,-372 209,-384 209,-384 209,-390 203,-396 197,-396"/>
<text text-anchor="middle" x="145" y="-381" font-family="sans" font-size="10.00">prokka</text>
<text text-anchor="middle" x="145" y="-370" font-family="sans" font-size="10.00">genome: Aq_sp_Aq135</text>
</g>
<!-- 4&#45;&gt;3 -->
<g id="edge8" class="edge">
<title>4&#45;&gt;3</title>
<path fill="none" stroke="grey" stroke-width="2" d="M115.04,-359.9C100.71,-350.64 84.08,-338.19 72,-324 56.2,-305.45 44.18,-280.41 36.55,-261.61"/>
<polygon fill="grey" stroke="grey" stroke-width="2" points="39.76,-260.2 32.86,-252.15 33.23,-262.74 39.76,-260.2"/>
</g>
<!-- 6 -->
<g id="node7" class="node">
<title>6</title>
<path fill="none" stroke="#56d88a" stroke-width="2" d="M123,-324C123,-324 93,-324 93,-324 87,-324 81,-318 81,-312 81,-312 81,-300 81,-300 81,-294 87,-288 93,-288 93,-288 123,-288 123,-288 129,-288 135,-294 135,-300 135,-300 135,-312 135,-312 135,-318 129,-324 123,-324"/>
<text text-anchor="middle" x="108" y="-303.5" font-family="sans" font-size="10.00">cog</text>
</g>
<!-- 4&#45;&gt;6 -->
<g id="edge10" class="edge">
<title>4&#45;&gt;6</title>
<path fill="none" stroke="grey" stroke-width="2" d="M135.85,-359.7C131.6,-351.64 126.44,-341.89 121.73,-332.98"/>
<polygon fill="grey" stroke="grey" stroke-width="2" points="124.81,-331.31 117.04,-324.1 118.62,-334.58 124.81,-331.31"/>
</g>
<!-- 7 -->
<g id="node8" class="node">
<title>7</title>
<path fill="none" stroke="#d8bc56" stroke-width="2" d="M192,-252C192,-252 156,-252 156,-252 150,-252 144,-246 144,-240 144,-240 144,-228 144,-228 144,-222 150,-216 156,-216 156,-216 192,-216 192,-216 198,-216 204,-222 204,-228 204,-228 204,-240 204,-240 204,-246 198,-252 192,-252"/>
<text text-anchor="middle" x="174" y="-231.5" font-family="sans" font-size="10.00">cazymes</text>
</g>
<!-- 4&#45;&gt;7 -->
<g id="edge11" class="edge">
<title>4&#45;&gt;7</title>
<path fill="none" stroke="grey" stroke-width="2" d="M148.5,-359.87C153.46,-335.56 162.6,-290.82 168.48,-262.01"/>
<polygon fill="grey" stroke="grey" stroke-width="2" points="171.92,-262.69 170.49,-252.19 165.06,-261.29 171.92,-262.69"/>
</g>
<!-- 8 -->
<g id="node9" class="node">
<title>8</title>
<path fill="none" stroke="#56d8c1" stroke-width="2" d="M264,-252C264,-252 234,-252 234,-252 228,-252 222,-246 222,-240 222,-240 222,-228 222,-228 222,-222 228,-216 234,-216 234,-216 264,-216 264,-216 270,-216 276,-222 276,-228 276,-228 276,-240 276,-240 276,-246 270,-252 264,-252"/>
<text text-anchor="middle" x="249" y="-231.5" font-family="sans" font-size="10.00">kegg</text>
</g>
<!-- 4&#45;&gt;8 -->
<g id="edge12" class="edge">
<title>4&#45;&gt;8</title>
<path fill="none" stroke="grey" stroke-width="2" d="M157.54,-359.87C175.66,-335.14 209.27,-289.24 230.32,-260.51"/>
<polygon fill="grey" stroke="grey" stroke-width="2" points="233.33,-262.33 236.41,-252.19 227.68,-258.19 233.33,-262.33"/>
</g>
<!-- 5 -->
<g id="node6" class="node">
<title>5</title>
<path fill="none" stroke="#d85656" stroke-width="2" d="M114,-252C114,-252 84,-252 84,-252 78,-252 72,-246 72,-240 72,-240 72,-228 72,-228 72,-222 78,-216 84,-216 84,-216 114,-216 114,-216 120,-216 126,-222 126,-228 126,-228 126,-240 126,-240 126,-246 120,-252 114,-252"/>
<text text-anchor="middle" x="99" y="-231.5" font-family="sans" font-size="10.00">cog2</text>
</g>
<!-- 5&#45;&gt;2 -->
<g id="edge5" class="edge">
<title>5&#45;&gt;2</title>
<path fill="none" stroke="grey" stroke-width="2" d="M117.54,-215.7C126.8,-207.05 138.16,-196.45 148.26,-187.03"/>
<polygon fill="grey" stroke="grey" stroke-width="2" points="150.75,-189.49 155.67,-180.1 145.98,-184.37 150.75,-189.49"/>
</g>
<!-- 6&#45;&gt;5 -->
<g id="edge9" class="edge">
<title>6&#45;&gt;5</title>
<path fill="none" stroke="grey" stroke-width="2" d="M105.78,-287.7C104.78,-279.98 103.59,-270.71 102.49,-262.11"/>
<polygon fill="grey" stroke="grey" stroke-width="2" points="105.95,-261.58 101.2,-252.1 99,-262.47 105.95,-261.58"/>
</g>
<!-- 7&#45;&gt;2 -->
<g id="edge6" class="edge">
<title>7&#45;&gt;2</title>
<path fill="none" stroke="grey" stroke-width="2" d="M174,-215.7C174,-207.98 174,-198.71 174,-190.11"/>
<polygon fill="grey" stroke="grey" stroke-width="2" points="177.5,-190.1 174,-180.1 170.5,-190.1 177.5,-190.1"/>
</g>
<!-- 8&#45;&gt;2 -->
<g id="edge7" class="edge">
<title>8&#45;&gt;2</title>
<path fill="none" stroke="grey" stroke-width="2" d="M230.46,-215.7C221.2,-207.05 209.84,-196.45 199.74,-187.03"/>
<polygon fill="grey" stroke="grey" stroke-width="2" points="202.02,-184.37 192.33,-180.1 197.25,-189.49 202.02,-184.37"/>
</g>
<!-- 9 -->
<g id="node10" class="node">
<title>9</title>
<path fill="none" stroke="#d88d56" stroke-width="2" d="M380.5,-180C380.5,-180 337.5,-180 337.5,-180 331.5,-180 325.5,-174 325.5,-168 325.5,-168 325.5,-156 325.5,-156 325.5,-150 331.5,-144 337.5,-144 337.5,-144 380.5,-144 380.5,-144 386.5,-144 392.5,-150 392.5,-156 392.5,-156 392.5,-168 392.5,-168 392.5,-174 386.5,-180 380.5,-180"/>
<text text-anchor="middle" x="359" y="-159.5" font-family="sans" font-size="10.00">ensure_all</text>
</g>
<!-- 9&#45;&gt;1 -->
<g id="edge3" class="edge">
<title>9&#45;&gt;1</title>
<path fill="none" stroke="grey" stroke-width="2" d="M336.01,-143.7C324.19,-134.8 309.61,-123.82 296.82,-114.2"/>
<polygon fill="grey" stroke="grey" stroke-width="2" points="298.82,-111.32 288.72,-108.1 294.61,-116.91 298.82,-111.32"/>
</g>
<!-- 10 -->
<g id="node11" class="node">
<title>10</title>
<path fill="none" stroke="#bed856" stroke-width="2" d="M287,-324C287,-324 257,-324 257,-324 251,-324 245,-318 245,-312 245,-312 245,-300 245,-300 245,-294 251,-288 257,-288 257,-288 287,-288 287,-288 293,-288 299,-294 299,-300 299,-300 299,-312 299,-312 299,-318 293,-324 287,-324"/>
<text text-anchor="middle" x="272" y="-303.5" font-family="sans" font-size="10.00">pfam</text>
</g>
<!-- 10&#45;&gt;9 -->
<g id="edge13" class="edge">
<title>10&#45;&gt;9</title>
<path fill="none" stroke="grey" stroke-width="2" d="M281.4,-287.71C291.35,-269.61 307.71,-240.47 323,-216 328.6,-207.04 335,-197.43 340.84,-188.89"/>
<polygon fill="grey" stroke="grey" stroke-width="2" points="343.86,-190.66 346.66,-180.44 338.1,-186.69 343.86,-190.66"/>
</g>
<!-- 11 -->
<g id="node12" class="node">
<title>11</title>
<path fill="none" stroke="#88d856" stroke-width="2" d="M433,-396C433,-396 329,-396 329,-396 323,-396 317,-390 317,-384 317,-384 317,-372 317,-372 317,-366 323,-360 329,-360 329,-360 433,-360 433,-360 439,-360 445,-366 445,-372 445,-372 445,-384 445,-384 445,-390 439,-396 433,-396"/>
<text text-anchor="middle" x="381" y="-381" font-family="sans" font-size="10.00">prokka</text>
<text text-anchor="middle" x="381" y="-370" font-family="sans" font-size="10.00">genome: Aq_sp_Aq349</text>
</g>
<!-- 11&#45;&gt;10 -->
<g id="edge17" class="edge">
<title>11&#45;&gt;10</title>
<path fill="none" stroke="grey" stroke-width="2" d="M354.34,-359.88C340.22,-350.81 322.69,-339.55 307.44,-329.76"/>
<polygon fill="grey" stroke="grey" stroke-width="2" points="309.07,-326.65 298.77,-324.19 305.29,-332.54 309.07,-326.65"/>
</g>
<!-- 13 -->
<g id="node14" class="node">
<title>13</title>
<path fill="none" stroke="#56d88a" stroke-width="2" d="M359,-324C359,-324 329,-324 329,-324 323,-324 317,-318 317,-312 317,-312 317,-300 317,-300 317,-294 323,-288 329,-288 329,-288 359,-288 359,-288 365,-288 371,-294 371,-300 371,-300 371,-312 371,-312 371,-318 365,-324 359,-324"/>
<text text-anchor="middle" x="344" y="-303.5" font-family="sans" font-size="10.00">cog</text>
</g>
<!-- 11&#45;&gt;13 -->
<g id="edge19" class="edge">
<title>11&#45;&gt;13</title>
<path fill="none" stroke="grey" stroke-width="2" d="M371.85,-359.7C367.6,-351.64 362.44,-341.89 357.73,-332.98"/>
<polygon fill="grey" stroke="grey" stroke-width="2" points="360.81,-331.31 353.04,-324.1 354.62,-334.58 360.81,-331.31"/>
</g>
<!-- 14 -->
<g id="node15" class="node">
<title>14</title>
<path fill="none" stroke="#d8bc56" stroke-width="2" d="M437,-324C437,-324 401,-324 401,-324 395,-324 389,-318 389,-312 389,-312 389,-300 389,-300 389,-294 395,-288 401,-288 401,-288 437,-288 437,-288 443,-288 449,-294 449,-300 449,-300 449,-312 449,-312 449,-318 443,-324 437,-324"/>
<text text-anchor="middle" x="419" y="-303.5" font-family="sans" font-size="10.00">cazymes</text>
</g>
<!-- 11&#45;&gt;14 -->
<g id="edge20" class="edge">
<title>11&#45;&gt;14</title>
<path fill="none" stroke="grey" stroke-width="2" d="M390.39,-359.7C394.76,-351.64 400.06,-341.89 404.9,-332.98"/>
<polygon fill="grey" stroke="grey" stroke-width="2" points="408.02,-334.56 409.71,-324.1 401.87,-331.22 408.02,-334.56"/>
</g>
<!-- 15 -->
<g id="node16" class="node">
<title>15</title>
<path fill="none" stroke="#56d8c1" stroke-width="2" d="M509,-324C509,-324 479,-324 479,-324 473,-324 467,-318 467,-312 467,-312 467,-300 467,-300 467,-294 473,-288 479,-288 479,-288 509,-288 509,-288 515,-288 521,-294 521,-300 521,-300 521,-312 521,-312 521,-318 515,-324 509,-324"/>
<text text-anchor="middle" x="494" y="-303.5" font-family="sans" font-size="10.00">kegg</text>
</g>
<!-- 11&#45;&gt;15 -->
<g id="edge21" class="edge">
<title>11&#45;&gt;15</title>
<path fill="none" stroke="grey" stroke-width="2" d="M408.64,-359.88C423.53,-350.66 442.07,-339.17 458.06,-329.26"/>
<polygon fill="grey" stroke="grey" stroke-width="2" points="459.98,-332.19 466.64,-323.95 456.3,-326.24 459.98,-332.19"/>
</g>
<!-- 12 -->
<g id="node13" class="node">
<title>12</title>
<path fill="none" stroke="#d85656" stroke-width="2" d="M374,-252C374,-252 344,-252 344,-252 338,-252 332,-246 332,-240 332,-240 332,-228 332,-228 332,-222 338,-216 344,-216 344,-216 374,-216 374,-216 380,-216 386,-222 386,-228 386,-228 386,-240 386,-240 386,-246 380,-252 374,-252"/>
<text text-anchor="middle" x="359" y="-231.5" font-family="sans" font-size="10.00">cog2</text>
</g>
<!-- 12&#45;&gt;9 -->
<g id="edge14" class="edge">
<title>12&#45;&gt;9</title>
<path fill="none" stroke="grey" stroke-width="2" d="M359,-215.7C359,-207.98 359,-198.71 359,-190.11"/>
<polygon fill="grey" stroke="grey" stroke-width="2" points="362.5,-190.1 359,-180.1 355.5,-190.1 362.5,-190.1"/>
</g>
<!-- 13&#45;&gt;12 -->
<g id="edge18" class="edge">
<title>13&#45;&gt;12</title>
<path fill="none" stroke="grey" stroke-width="2" d="M347.71,-287.7C349.36,-279.98 351.35,-270.71 353.19,-262.11"/>
<polygon fill="grey" stroke="grey" stroke-width="2" points="356.66,-262.62 355.33,-252.1 349.82,-261.15 356.66,-262.62"/>
</g>
<!-- 14&#45;&gt;9 -->
<g id="edge15" class="edge">
<title>14&#45;&gt;9</title>
<path fill="none" stroke="grey" stroke-width="2" d="M416.1,-287.68C412.63,-269.31 405.87,-239.71 395,-216 390.66,-206.55 384.69,-196.93 378.86,-188.52"/>
<polygon fill="grey" stroke="grey" stroke-width="2" points="381.59,-186.33 372.9,-180.27 375.91,-190.42 381.59,-186.33"/>
</g>
<!-- 15&#45;&gt;9 -->
<g id="edge16" class="edge">
<title>15&#45;&gt;9</title>
<path fill="none" stroke="grey" stroke-width="2" d="M479.57,-287.87C464.05,-269.66 438.43,-240.19 415,-216 405.52,-206.21 394.73,-195.83 385.16,-186.87"/>
<polygon fill="grey" stroke="grey" stroke-width="2" points="387.51,-184.28 377.8,-180.03 382.74,-189.4 387.51,-184.28"/>
</g>
</g>
</svg>
