<?xml version="1.0" encoding="UTF-8" standalone="no"?>
<!DOCTYPE svg PUBLIC "-//W3C//DTD SVG 1.1//EN"
 "http://www.w3.org/Graphics/SVG/1.1/DTD/svg11.dtd">
<!-- Generated by graphviz version 2.42.3 (20191010.1750)
 -->
<!-- Title: snakemake_dag Pages: 1 -->
<svg width="1036pt" height="476pt"
 viewBox="0.00 0.00 1036.00 476.00" xmlns="http://www.w3.org/2000/svg" xmlns:xlink="http://www.w3.org/1999/xlink">
<g id="graph0" class="graph" transform="scale(1 1) rotate(0) translate(4 472)">
<title>snakemake_dag</title>
<polygon fill="white" stroke="transparent" points="-4,4 -4,-472 1032,-472 1032,4 -4,4"/>
<!-- 0 -->
<g id="node1" class="node">
<title>0</title>
<path fill="none" stroke="#d8d356" stroke-width="2" d="M527,-36C527,-36 497,-36 497,-36 491,-36 485,-30 485,-24 485,-24 485,-12 485,-12 485,-6 491,0 497,0 497,0 527,0 527,0 533,0 539,-6 539,-12 539,-12 539,-24 539,-24 539,-30 533,-36 527,-36"/>
<text text-anchor="middle" x="512" y="-15.5" font-family="sans" font-size="10.00">all</text>
</g>
<!-- 1 -->
<g id="node2" class="node">
<title>1</title>
<path fill="none" stroke="#d87556" stroke-width="2" d="M527,-180C527,-180 497,-180 497,-180 491,-180 485,-174 485,-168 485,-168 485,-156 485,-156 485,-150 491,-144 497,-144 497,-144 527,-144 527,-144 533,-144 539,-150 539,-156 539,-156 539,-168 539,-168 539,-174 533,-180 527,-180"/>
<text text-anchor="middle" x="512" y="-159.5" font-family="sans" font-size="10.00">join_all</text>
</g>
<!-- 1&#45;&gt;0 -->
<g id="edge1" class="edge">
<title>1&#45;&gt;0</title>
<path fill="none" stroke="grey" stroke-width="2" d="M505.35,-143.63C501.8,-133.42 497.8,-120.17 496,-108 493.66,-92.17 493.66,-87.83 496,-72 497.28,-63.35 499.67,-54.15 502.22,-45.89"/>
<polygon fill="grey" stroke="grey" stroke-width="2" points="505.55,-46.96 505.35,-36.37 498.9,-44.78 505.55,-46.96"/>
</g>
<!-- 36 -->
<g id="node37" class="node">
<title>36</title>
<path fill="none" stroke="#9fd856" stroke-width="2" d="M579.5,-108C579.5,-108 516.5,-108 516.5,-108 510.5,-108 504.5,-102 504.5,-96 504.5,-96 504.5,-84 504.5,-84 504.5,-78 510.5,-72 516.5,-72 516.5,-72 579.5,-72 579.5,-72 585.5,-72 591.5,-78 591.5,-84 591.5,-84 591.5,-96 591.5,-96 591.5,-102 585.5,-108 579.5,-108"/>
<text text-anchor="middle" x="548" y="-87.5" font-family="sans" font-size="10.00">join_metadata</text>
</g>
<!-- 1&#45;&gt;36 -->
<g id="edge57" class="edge">
<title>1&#45;&gt;36</title>
<path fill="none" stroke="grey" stroke-width="2" d="M520.9,-143.7C525,-135.73 529.95,-126.1 534.49,-117.26"/>
<polygon fill="grey" stroke="grey" stroke-width="2" points="537.74,-118.6 539.2,-108.1 531.52,-115.4 537.74,-118.6"/>
</g>
<!-- 2 -->
<g id="node3" class="node">
<title>2</title>
<path fill="none" stroke="#bed856" stroke-width="2" d="M218.5,-252C218.5,-252 175.5,-252 175.5,-252 169.5,-252 163.5,-246 163.5,-240 163.5,-240 163.5,-228 163.5,-228 163.5,-222 169.5,-216 175.5,-216 175.5,-216 218.5,-216 218.5,-216 224.5,-216 230.5,-222 230.5,-228 230.5,-228 230.5,-240 230.5,-240 230.5,-246 224.5,-252 218.5,-252"/>
<text text-anchor="middle" x="197" y="-231.5" font-family="sans" font-size="10.00">ensure_all</text>
</g>
<!-- 2&#45;&gt;1 -->
<g id="edge3" class="edge">
<title>2&#45;&gt;1</title>
<path fill="none" stroke="grey" stroke-width="2" d="M230.71,-225.51C290.12,-212.31 413.03,-184.99 474.82,-171.26"/>
<polygon fill="grey" stroke="grey" stroke-width="2" points="475.9,-174.61 484.9,-169.02 474.38,-167.77 475.9,-174.61"/>
</g>
<!-- 3 -->
<g id="node4" class="node">
<title>3</title>
<path fill="none" stroke="#56d0d8" stroke-width="2" d="M321,-324C321,-324 291,-324 291,-324 285,-324 279,-318 279,-312 279,-312 279,-300 279,-300 279,-294 285,-288 291,-288 291,-288 321,-288 321,-288 327,-288 333,-294 333,-300 333,-300 333,-312 333,-312 333,-318 327,-324 321,-324"/>
<text text-anchor="middle" x="306" y="-303.5" font-family="sans" font-size="10.00">pfam2</text>
</g>
<!-- 3&#45;&gt;2 -->
<g id="edge6" class="edge">
<title>3&#45;&gt;2</title>
<path fill="none" stroke="grey" stroke-width="2" d="M279.34,-287.88C265.22,-278.81 247.69,-267.55 232.44,-257.76"/>
<polygon fill="grey" stroke="grey" stroke-width="2" points="234.07,-254.65 223.77,-252.19 230.29,-260.54 234.07,-254.65"/>
</g>
<!-- 4 -->
<g id="node5" class="node">
<title>4</title>
<path fill="none" stroke="#56d8a2" stroke-width="2" d="M321,-396C321,-396 291,-396 291,-396 285,-396 279,-390 279,-384 279,-384 279,-372 279,-372 279,-366 285,-360 291,-360 291,-360 321,-360 321,-360 327,-360 333,-366 333,-372 333,-372 333,-384 333,-384 333,-390 327,-396 321,-396"/>
<text text-anchor="middle" x="306" y="-375.5" font-family="sans" font-size="10.00">pfam</text>
</g>
<!-- 4&#45;&gt;3 -->
<g id="edge11" class="edge">
<title>4&#45;&gt;3</title>
<path fill="none" stroke="grey" stroke-width="2" d="M306,-359.7C306,-351.98 306,-342.71 306,-334.11"/>
<polygon fill="grey" stroke="grey" stroke-width="2" points="309.5,-334.1 306,-324.1 302.5,-334.1 309.5,-334.1"/>
</g>
<!-- 5 -->
<g id="node6" class="node">
<title>5</title>
<path fill="none" stroke="#d89556" stroke-width="2" stroke-dasharray="5,2" d="M116,-468C116,-468 12,-468 12,-468 6,-468 0,-462 0,-456 0,-456 0,-444 0,-444 0,-438 6,-432 12,-432 12,-432 116,-432 116,-432 122,-432 128,-438 128,-444 128,-444 128,-456 128,-456 128,-462 122,-468 116,-468"/>
<text text-anchor="middle" x="64" y="-453" font-family="sans" font-size="10.00">prokka</text>
<text text-anchor="middle" x="64" y="-442" font-family="sans" font-size="10.00">genome: Aq_sp_Aq349</text>
</g>
<!-- 5&#45;&gt;4 -->
<g id="edge12" class="edge">
<title>5&#45;&gt;4</title>
<path fill="none" stroke="grey" stroke-width="2" d="M128.07,-433.92C174.04,-422.86 232.9,-408.16 269.12,-395.92"/>
<polygon fill="grey" stroke="grey" stroke-width="2" points="270.44,-399.17 278.71,-392.54 268.12,-392.57 270.44,-399.17"/>
</g>
<!-- 8 -->
<g id="node9" class="node">
<title>8</title>
<path fill="none" stroke="#68d856" stroke-width="2" d="M249,-396C249,-396 219,-396 219,-396 213,-396 207,-390 207,-384 207,-384 207,-372 207,-372 207,-366 213,-360 219,-360 219,-360 249,-360 249,-360 255,-360 261,-366 261,-372 261,-372 261,-384 261,-384 261,-390 255,-396 249,-396"/>
<text text-anchor="middle" x="234" y="-375.5" font-family="sans" font-size="10.00">cog</text>
</g>
<!-- 5&#45;&gt;8 -->
<g id="edge15" class="edge">
<title>5&#45;&gt;8</title>
<path fill="none" stroke="grey" stroke-width="2" d="M109.27,-431.93C133.24,-422.7 163.31,-410.83 197.65,-396.03"/>
<polygon fill="grey" stroke="grey" stroke-width="2" points="199.18,-399.19 206.96,-392 196.39,-392.77 199.18,-399.19"/>
</g>
<!-- 10 -->
<g id="node11" class="node">
<title>10</title>
<path fill="none" stroke="#5692d8" stroke-width="2" d="M105,-396C105,-396 69,-396 69,-396 63,-396 57,-390 57,-384 57,-384 57,-372 57,-372 57,-366 63,-360 69,-360 69,-360 105,-360 105,-360 111,-360 117,-366 117,-372 117,-372 117,-384 117,-384 117,-390 111,-396 105,-396"/>
<text text-anchor="middle" x="87" y="-375.5" font-family="sans" font-size="10.00">cazymes</text>
</g>
<!-- 5&#45;&gt;10 -->
<g id="edge17" class="edge">
<title>5&#45;&gt;10</title>
<path fill="none" stroke="grey" stroke-width="2" d="M69.69,-431.7C72.25,-423.9 75.33,-414.51 78.18,-405.83"/>
<polygon fill="grey" stroke="grey" stroke-width="2" points="81.58,-406.7 81.38,-396.1 74.93,-404.51 81.58,-406.7"/>
</g>
<!-- 12 -->
<g id="node13" class="node">
<title>12</title>
<path fill="none" stroke="#d8b456" stroke-width="2" stroke-dasharray="5,2" d="M53,-324C53,-324 23,-324 23,-324 17,-324 11,-318 11,-312 11,-312 11,-300 11,-300 11,-294 17,-288 23,-288 23,-288 53,-288 53,-288 59,-288 65,-294 65,-300 65,-300 65,-312 65,-312 65,-318 59,-324 53,-324"/>
<text text-anchor="middle" x="38" y="-303.5" font-family="sans" font-size="10.00">kegg</text>
</g>
<!-- 5&#45;&gt;12 -->
<g id="edge19" class="edge">
<title>5&#45;&gt;12</title>
<path fill="none" stroke="grey" stroke-width="2" d="M57.86,-431.54C54.47,-421.3 50.47,-408.05 48,-396 43.8,-375.57 41.26,-352.11 39.79,-334.41"/>
<polygon fill="grey" stroke="grey" stroke-width="2" points="43.26,-333.91 39.01,-324.21 36.28,-334.44 43.26,-333.91"/>
</g>
<!-- 14 -->
<g id="node15" class="node">
<title>14</title>
<path fill="none" stroke="#56d8c1" stroke-width="2" d="M177,-396C177,-396 147,-396 147,-396 141,-396 135,-390 135,-384 135,-384 135,-372 135,-372 135,-366 141,-360 147,-360 147,-360 177,-360 177,-360 183,-360 189,-366 189,-372 189,-372 189,-384 189,-384 189,-390 183,-396 177,-396"/>
<text text-anchor="middle" x="162" y="-375.5" font-family="sans" font-size="10.00">merops</text>
</g>
<!-- 5&#45;&gt;14 -->
<g id="edge21" class="edge">
<title>5&#45;&gt;14</title>
<path fill="none" stroke="grey" stroke-width="2" d="M87.97,-431.88C100.55,-422.89 116.13,-411.76 129.75,-402.03"/>
<polygon fill="grey" stroke="grey" stroke-width="2" points="131.83,-404.85 137.93,-396.19 127.76,-399.15 131.83,-404.85"/>
</g>
<!-- 6 -->
<g id="node7" class="node">
<title>6</title>
<path fill="none" stroke="#56d863" stroke-width="2" stroke-dasharray="5,2" d="M833.5,-468C833.5,-468 762.5,-468 762.5,-468 756.5,-468 750.5,-462 750.5,-456 750.5,-456 750.5,-444 750.5,-444 750.5,-438 756.5,-432 762.5,-432 762.5,-432 833.5,-432 833.5,-432 839.5,-432 845.5,-438 845.5,-444 845.5,-444 845.5,-456 845.5,-456 845.5,-462 839.5,-468 833.5,-468"/>
<text text-anchor="middle" x="798" y="-447.5" font-family="sans" font-size="10.00">download_pfam</text>
</g>
<!-- 6&#45;&gt;4 -->
<g id="edge13" class="edge">
<title>6&#45;&gt;4</title>
<path fill="none" stroke="grey" stroke-width="2" d="M750.28,-434.01C747.15,-433.27 744.04,-432.58 741,-432 569.31,-399 515.74,-441.16 342.81,-395.63"/>
<polygon fill="grey" stroke="grey" stroke-width="2" points="343.7,-392.24 333.14,-393.02 341.88,-399 343.7,-392.24"/>
</g>
<!-- 18 -->
<g id="node19" class="node">
<title>18</title>
<path fill="none" stroke="#56d8a2" stroke-width="2" d="M654,-396C654,-396 624,-396 624,-396 618,-396 612,-390 612,-384 612,-384 612,-372 612,-372 612,-366 618,-360 624,-360 624,-360 654,-360 654,-360 660,-360 666,-366 666,-372 666,-372 666,-384 666,-384 666,-390 660,-396 654,-396"/>
<text text-anchor="middle" x="639" y="-375.5" font-family="sans" font-size="10.00">pfam</text>
</g>
<!-- 6&#45;&gt;18 -->
<g id="edge30" class="edge">
<title>6&#45;&gt;18</title>
<path fill="none" stroke="grey" stroke-width="2" d="M757.41,-431.92C735.42,-422.58 707.62,-410.61 675.31,-396.08"/>
<polygon fill="grey" stroke="grey" stroke-width="2" points="676.63,-392.84 666.08,-391.91 673.75,-399.22 676.63,-392.84"/>
</g>
<!-- 28 -->
<g id="node29" class="node">
<title>28</title>
<path fill="none" stroke="#56d8a2" stroke-width="2" d="M948,-396C948,-396 918,-396 918,-396 912,-396 906,-390 906,-384 906,-384 906,-372 906,-372 906,-366 912,-360 918,-360 918,-360 948,-360 948,-360 954,-360 960,-366 960,-372 960,-372 960,-384 960,-384 960,-390 954,-396 948,-396"/>
<text text-anchor="middle" x="933" y="-375.5" font-family="sans" font-size="10.00">pfam</text>
</g>
<!-- 6&#45;&gt;28 -->
<g id="edge47" class="edge">
<title>6&#45;&gt;28</title>
<path fill="none" stroke="grey" stroke-width="2" d="M831.02,-431.88C850.93,-421.56 876.29,-408.4 896.75,-397.8"/>
<polygon fill="grey" stroke="grey" stroke-width="2" points="898.5,-400.83 905.76,-393.12 895.27,-394.62 898.5,-400.83"/>
</g>
<!-- 7 -->
<g id="node8" class="node">
<title>7</title>
<path fill="none" stroke="#88d856" stroke-width="2" d="M249,-324C249,-324 219,-324 219,-324 213,-324 207,-318 207,-312 207,-312 207,-300 207,-300 207,-294 213,-288 219,-288 219,-288 249,-288 249,-288 255,-288 261,-294 261,-300 261,-300 261,-312 261,-312 261,-318 255,-324 249,-324"/>
<text text-anchor="middle" x="234" y="-303.5" font-family="sans" font-size="10.00">cog2</text>
</g>
<!-- 7&#45;&gt;2 -->
<g id="edge7" class="edge">
<title>7&#45;&gt;2</title>
<path fill="none" stroke="grey" stroke-width="2" d="M224.85,-287.7C220.6,-279.64 215.44,-269.89 210.73,-260.98"/>
<polygon fill="grey" stroke="grey" stroke-width="2" points="213.81,-259.31 206.04,-252.1 207.62,-262.58 213.81,-259.31"/>
</g>
<!-- 8&#45;&gt;7 -->
<g id="edge14" class="edge">
<title>8&#45;&gt;7</title>
<path fill="none" stroke="grey" stroke-width="2" d="M234,-359.7C234,-351.98 234,-342.71 234,-334.11"/>
<polygon fill="grey" stroke="grey" stroke-width="2" points="237.5,-334.1 234,-324.1 230.5,-334.1 237.5,-334.1"/>
</g>
<!-- 9 -->
<g id="node10" class="node">
<title>9</title>
<path fill="none" stroke="#56d882" stroke-width="2" d="M720,-468C720,-468 658,-468 658,-468 652,-468 646,-462 646,-456 646,-456 646,-444 646,-444 646,-438 652,-432 658,-432 658,-432 720,-432 720,-432 726,-432 732,-438 732,-444 732,-444 732,-456 732,-456 732,-462 726,-468 720,-468"/>
<text text-anchor="middle" x="689" y="-447.5" font-family="sans" font-size="10.00">download_cog</text>
</g>
<!-- 9&#45;&gt;8 -->
<g id="edge16" class="edge">
<title>9&#45;&gt;8</title>
<path fill="none" stroke="grey" stroke-width="2" d="M645.78,-434.09C642.83,-433.31 639.88,-432.6 637,-432 479.89,-399.03 430.02,-437.97 271.26,-395.76"/>
<polygon fill="grey" stroke="grey" stroke-width="2" points="271.71,-392.26 261.14,-393 269.87,-399.01 271.71,-392.26"/>
</g>
<!-- 21 -->
<g id="node22" class="node">
<title>21</title>
<path fill="none" stroke="#68d856" stroke-width="2" d="M582,-396C582,-396 552,-396 552,-396 546,-396 540,-390 540,-384 540,-384 540,-372 540,-372 540,-366 546,-360 552,-360 552,-360 582,-360 582,-360 588,-360 594,-366 594,-372 594,-372 594,-384 594,-384 594,-390 588,-396 582,-396"/>
<text text-anchor="middle" x="567" y="-375.5" font-family="sans" font-size="10.00">cog</text>
</g>
<!-- 9&#45;&gt;21 -->
<g id="edge33" class="edge">
<title>9&#45;&gt;21</title>
<path fill="none" stroke="grey" stroke-width="2" d="M659.16,-431.88C642.22,-422.16 620.89,-409.92 603.03,-399.67"/>
<polygon fill="grey" stroke="grey" stroke-width="2" points="604.45,-396.46 594.04,-394.51 600.97,-402.53 604.45,-396.46"/>
</g>
<!-- 31 -->
<g id="node32" class="node">
<title>31</title>
<path fill="none" stroke="#68d856" stroke-width="2" d="M876,-396C876,-396 846,-396 846,-396 840,-396 834,-390 834,-384 834,-384 834,-372 834,-372 834,-366 840,-360 846,-360 846,-360 876,-360 876,-360 882,-360 888,-366 888,-372 888,-372 888,-384 888,-384 888,-390 882,-396 876,-396"/>
<text text-anchor="middle" x="861" y="-375.5" font-family="sans" font-size="10.00">cog</text>
</g>
<!-- 9&#45;&gt;31 -->
<g id="edge50" class="edge">
<title>9&#45;&gt;31</title>
<path fill="none" stroke="grey" stroke-width="2" d="M732.19,-433.05C756.98,-423.69 788.83,-411.34 824.75,-395.98"/>
<polygon fill="grey" stroke="grey" stroke-width="2" points="826.16,-399.18 833.97,-392.01 823.4,-392.75 826.16,-399.18"/>
</g>
<!-- 10&#45;&gt;2 -->
<g id="edge8" class="edge">
<title>10&#45;&gt;2</title>
<path fill="none" stroke="grey" stroke-width="2" d="M90.14,-359.74C94.31,-340.6 103.2,-309.59 120,-288 129.4,-275.93 142.31,-265.56 154.88,-257.28"/>
<polygon fill="grey" stroke="grey" stroke-width="2" points="156.87,-260.17 163.48,-251.89 153.15,-254.24 156.87,-260.17"/>
</g>
<!-- 11 -->
<g id="node12" class="node">
<title>11</title>
<path fill="none" stroke="#d85656" stroke-width="2" d="M247.5,-468C247.5,-468 158.5,-468 158.5,-468 152.5,-468 146.5,-462 146.5,-456 146.5,-456 146.5,-444 146.5,-444 146.5,-438 152.5,-432 158.5,-432 158.5,-432 247.5,-432 247.5,-432 253.5,-432 259.5,-438 259.5,-444 259.5,-444 259.5,-456 259.5,-456 259.5,-462 253.5,-468 247.5,-468"/>
<text text-anchor="middle" x="203" y="-447.5" font-family="sans" font-size="10.00">download_cazymes</text>
</g>
<!-- 11&#45;&gt;10 -->
<g id="edge18" class="edge">
<title>11&#45;&gt;10</title>
<path fill="none" stroke="grey" stroke-width="2" d="M174.62,-431.88C159.46,-422.72 140.59,-411.34 124.26,-401.48"/>
<polygon fill="grey" stroke="grey" stroke-width="2" points="125.86,-398.36 115.49,-396.19 122.24,-404.35 125.86,-398.36"/>
</g>
<!-- 22 -->
<g id="node23" class="node">
<title>22</title>
<path fill="none" stroke="#5692d8" stroke-width="2" d="M399,-396C399,-396 363,-396 363,-396 357,-396 351,-390 351,-384 351,-384 351,-372 351,-372 351,-366 357,-360 363,-360 363,-360 399,-360 399,-360 405,-360 411,-366 411,-372 411,-372 411,-384 411,-384 411,-390 405,-396 399,-396"/>
<text text-anchor="middle" x="381" y="-375.5" font-family="sans" font-size="10.00">cazymes</text>
</g>
<!-- 11&#45;&gt;22 -->
<g id="edge35" class="edge">
<title>11&#45;&gt;22</title>
<path fill="none" stroke="grey" stroke-width="2" d="M249.23,-431.99C274.15,-422.68 305.6,-410.71 341.19,-396.25"/>
<polygon fill="grey" stroke="grey" stroke-width="2" points="342.89,-399.34 350.83,-392.32 340.24,-392.86 342.89,-399.34"/>
</g>
<!-- 32 -->
<g id="node33" class="node">
<title>32</title>
<path fill="none" stroke="#5692d8" stroke-width="2" d="M732,-396C732,-396 696,-396 696,-396 690,-396 684,-390 684,-384 684,-384 684,-372 684,-372 684,-366 690,-360 696,-360 696,-360 732,-360 732,-360 738,-360 744,-366 744,-372 744,-372 744,-384 744,-384 744,-390 738,-396 732,-396"/>
<text text-anchor="middle" x="714" y="-375.5" font-family="sans" font-size="10.00">cazymes</text>
</g>
<!-- 11&#45;&gt;32 -->
<g id="edge52" class="edge">
<title>11&#45;&gt;32</title>
<path fill="none" stroke="grey" stroke-width="2" d="M259.75,-433.75C262.87,-433.11 265.97,-432.52 269,-432 444.31,-401.86 497.55,-439.37 673.82,-395.81"/>
<polygon fill="grey" stroke="grey" stroke-width="2" points="674.83,-399.17 683.67,-393.32 673.12,-392.38 674.83,-399.17"/>
</g>
<!-- 12&#45;&gt;2 -->
<g id="edge9" class="edge">
<title>12&#45;&gt;2</title>
<path fill="none" stroke="grey" stroke-width="2" d="M65.33,-292.97C89.74,-282.22 125.9,-266.3 154.15,-253.86"/>
<polygon fill="grey" stroke="grey" stroke-width="2" points="155.66,-257.02 163.4,-249.79 152.84,-250.62 155.66,-257.02"/>
</g>
<!-- 13 -->
<g id="node14" class="node">
<title>13</title>
<path fill="none" stroke="#56b1d8" stroke-width="2" d="M176.5,-324C176.5,-324 141.5,-324 141.5,-324 135.5,-324 129.5,-318 129.5,-312 129.5,-312 129.5,-300 129.5,-300 129.5,-294 135.5,-288 141.5,-288 141.5,-288 176.5,-288 176.5,-288 182.5,-288 188.5,-294 188.5,-300 188.5,-300 188.5,-312 188.5,-312 188.5,-318 182.5,-324 176.5,-324"/>
<text text-anchor="middle" x="159" y="-303.5" font-family="sans" font-size="10.00">merops2</text>
</g>
<!-- 13&#45;&gt;2 -->
<g id="edge10" class="edge">
<title>13&#45;&gt;2</title>
<path fill="none" stroke="grey" stroke-width="2" d="M168.39,-287.7C172.76,-279.64 178.06,-269.89 182.9,-260.98"/>
<polygon fill="grey" stroke="grey" stroke-width="2" points="186.02,-262.56 187.71,-252.1 179.87,-259.22 186.02,-262.56"/>
</g>
<!-- 14&#45;&gt;13 -->
<g id="edge20" class="edge">
<title>14&#45;&gt;13</title>
<path fill="none" stroke="grey" stroke-width="2" d="M161.26,-359.7C160.93,-351.98 160.53,-342.71 160.16,-334.11"/>
<polygon fill="grey" stroke="grey" stroke-width="2" points="163.66,-333.95 159.73,-324.1 156.66,-334.25 163.66,-333.95"/>
</g>
<!-- 15 -->
<g id="node16" class="node">
<title>15</title>
<path fill="none" stroke="#5673d8" stroke-width="2" stroke-dasharray="5,2" d="M372,-468C372,-468 290,-468 290,-468 284,-468 278,-462 278,-456 278,-456 278,-444 278,-444 278,-438 284,-432 290,-432 290,-432 372,-432 372,-432 378,-432 384,-438 384,-444 384,-444 384,-456 384,-456 384,-462 378,-468 372,-468"/>
<text text-anchor="middle" x="331" y="-447.5" font-family="sans" font-size="10.00">download_merops</text>
</g>
<!-- 15&#45;&gt;14 -->
<g id="edge22" class="edge">
<title>15&#45;&gt;14</title>
<path fill="none" stroke="grey" stroke-width="2" d="M286.08,-431.9C262.29,-422.66 232.45,-410.78 198.3,-396.02"/>
<polygon fill="grey" stroke="grey" stroke-width="2" points="199.61,-392.77 189.04,-391.99 196.82,-399.19 199.61,-392.77"/>
</g>
<!-- 25 -->
<g id="node26" class="node">
<title>25</title>
<path fill="none" stroke="#56d8c1" stroke-width="2" d="M471,-396C471,-396 441,-396 441,-396 435,-396 429,-390 429,-384 429,-384 429,-372 429,-372 429,-366 435,-360 441,-360 441,-360 471,-360 471,-360 477,-360 483,-366 483,-372 483,-372 483,-384 483,-384 483,-390 477,-396 471,-396"/>
<text text-anchor="middle" x="456" y="-375.5" font-family="sans" font-size="10.00">merops</text>
</g>
<!-- 15&#45;&gt;25 -->
<g id="edge39" class="edge">
<title>15&#45;&gt;25</title>
<path fill="none" stroke="grey" stroke-width="2" d="M361.58,-431.88C379.22,-422 401.5,-409.52 419.98,-399.17"/>
<polygon fill="grey" stroke="grey" stroke-width="2" points="421.7,-402.22 428.72,-394.28 418.28,-396.11 421.7,-402.22"/>
</g>
<!-- 35 -->
<g id="node36" class="node">
<title>35</title>
<path fill="none" stroke="#56d8c1" stroke-width="2" d="M804,-396C804,-396 774,-396 774,-396 768,-396 762,-390 762,-384 762,-384 762,-372 762,-372 762,-366 768,-360 774,-360 774,-360 804,-360 804,-360 810,-360 816,-366 816,-372 816,-372 816,-384 816,-384 816,-390 810,-396 804,-396"/>
<text text-anchor="middle" x="789" y="-375.5" font-family="sans" font-size="10.00">merops</text>
</g>
<!-- 15&#45;&gt;35 -->
<g id="edge56" class="edge">
<title>15&#45;&gt;35</title>
<path fill="none" stroke="grey" stroke-width="2" d="M384.3,-433.77C387.23,-433.13 390.15,-432.53 393,-432 547.85,-403.24 596.07,-437.49 751.92,-395.72"/>
<polygon fill="grey" stroke="grey" stroke-width="2" points="753.14,-399.02 761.85,-392.99 751.28,-392.27 753.14,-399.02"/>
</g>
<!-- 16 -->
<g id="node17" class="node">
<title>16</title>
<path fill="none" stroke="#bed856" stroke-width="2" d="M533.5,-252C533.5,-252 490.5,-252 490.5,-252 484.5,-252 478.5,-246 478.5,-240 478.5,-240 478.5,-228 478.5,-228 478.5,-222 484.5,-216 490.5,-216 490.5,-216 533.5,-216 533.5,-216 539.5,-216 545.5,-222 545.5,-228 545.5,-228 545.5,-240 545.5,-240 545.5,-246 539.5,-252 533.5,-252"/>
<text text-anchor="middle" x="512" y="-231.5" font-family="sans" font-size="10.00">ensure_all</text>
</g>
<!-- 16&#45;&gt;1 -->
<g id="edge4" class="edge">
<title>16&#45;&gt;1</title>
<path fill="none" stroke="grey" stroke-width="2" d="M512,-215.7C512,-207.98 512,-198.71 512,-190.11"/>
<polygon fill="grey" stroke="grey" stroke-width="2" points="515.5,-190.1 512,-180.1 508.5,-190.1 515.5,-190.1"/>
</g>
<!-- 17 -->
<g id="node18" class="node">
<title>17</title>
<path fill="none" stroke="#56d0d8" stroke-width="2" d="M671,-324C671,-324 641,-324 641,-324 635,-324 629,-318 629,-312 629,-312 629,-300 629,-300 629,-294 635,-288 641,-288 641,-288 671,-288 671,-288 677,-288 683,-294 683,-300 683,-300 683,-312 683,-312 683,-318 677,-324 671,-324"/>
<text text-anchor="middle" x="656" y="-303.5" font-family="sans" font-size="10.00">pfam2</text>
</g>
<!-- 17&#45;&gt;16 -->
<g id="edge23" class="edge">
<title>17&#45;&gt;16</title>
<path fill="none" stroke="grey" stroke-width="2" d="M628.91,-291.83C608.06,-281.69 578.83,-267.48 554.81,-255.81"/>
<polygon fill="grey" stroke="grey" stroke-width="2" points="556.08,-252.54 545.55,-251.31 553.02,-258.83 556.08,-252.54"/>
</g>
<!-- 18&#45;&gt;17 -->
<g id="edge28" class="edge">
<title>18&#45;&gt;17</title>
<path fill="none" stroke="grey" stroke-width="2" d="M643.2,-359.7C645.1,-351.9 647.38,-342.51 649.48,-333.83"/>
<polygon fill="grey" stroke="grey" stroke-width="2" points="652.89,-334.65 651.85,-324.1 646.08,-333 652.89,-334.65"/>
</g>
<!-- 19 -->
<g id="node20" class="node">
<title>19</title>
<path fill="none" stroke="#d89556" stroke-width="2" stroke-dasharray="5,2" d="M616,-468C616,-468 414,-468 414,-468 408,-468 402,-462 402,-456 402,-456 402,-444 402,-444 402,-438 408,-432 414,-432 414,-432 616,-432 616,-432 622,-432 628,-438 628,-444 628,-444 628,-456 628,-456 628,-462 622,-468 616,-468"/>
<text text-anchor="middle" x="515" y="-453" font-family="sans" font-size="10.00">prokka</text>
<text text-anchor="middle" x="515" y="-442" font-family="sans" font-size="10.00">genome: GCA_002714325.1_ASM271432v1</text>
</g>
<!-- 19&#45;&gt;18 -->
<g id="edge29" class="edge">
<title>19&#45;&gt;18</title>
<path fill="none" stroke="grey" stroke-width="2" d="M545.33,-431.88C562.75,-422.04 584.73,-409.64 603.02,-399.31"/>
<polygon fill="grey" stroke="grey" stroke-width="2" points="604.95,-402.24 611.93,-394.28 601.5,-396.15 604.95,-402.24"/>
</g>
<!-- 19&#45;&gt;21 -->
<g id="edge32" class="edge">
<title>19&#45;&gt;21</title>
<path fill="none" stroke="grey" stroke-width="2" d="M527.85,-431.7C534.03,-423.39 541.54,-413.28 548.32,-404.14"/>
<polygon fill="grey" stroke="grey" stroke-width="2" points="551.14,-406.22 554.29,-396.1 545.52,-402.04 551.14,-406.22"/>
</g>
<!-- 19&#45;&gt;22 -->
<g id="edge34" class="edge">
<title>19&#45;&gt;22</title>
<path fill="none" stroke="grey" stroke-width="2" d="M482.22,-431.88C463.49,-422.09 439.89,-409.76 420.18,-399.47"/>
<polygon fill="grey" stroke="grey" stroke-width="2" points="421.63,-396.28 411.15,-394.75 418.39,-402.48 421.63,-396.28"/>
</g>
<!-- 23 -->
<g id="node24" class="node">
<title>23</title>
<path fill="none" stroke="#d8b456" stroke-width="2" stroke-dasharray="5,2" d="M527,-324C527,-324 497,-324 497,-324 491,-324 485,-318 485,-312 485,-312 485,-300 485,-300 485,-294 491,-288 497,-288 497,-288 527,-288 527,-288 533,-288 539,-294 539,-300 539,-300 539,-312 539,-312 539,-318 533,-324 527,-324"/>
<text text-anchor="middle" x="512" y="-303.5" font-family="sans" font-size="10.00">kegg</text>
</g>
<!-- 19&#45;&gt;23 -->
<g id="edge36" class="edge">
<title>19&#45;&gt;23</title>
<path fill="none" stroke="grey" stroke-width="2" d="M514.64,-431.87C514.13,-407.67 513.19,-363.21 512.58,-334.39"/>
<polygon fill="grey" stroke="grey" stroke-width="2" points="516.07,-334.11 512.36,-324.19 509.08,-334.26 516.07,-334.11"/>
</g>
<!-- 19&#45;&gt;25 -->
<g id="edge38" class="edge">
<title>19&#45;&gt;25</title>
<path fill="none" stroke="grey" stroke-width="2" d="M500.42,-431.7C493.34,-423.3 484.72,-413.07 476.95,-403.86"/>
<polygon fill="grey" stroke="grey" stroke-width="2" points="479.54,-401.49 470.42,-396.1 474.19,-406.01 479.54,-401.49"/>
</g>
<!-- 20 -->
<g id="node21" class="node">
<title>20</title>
<path fill="none" stroke="#88d856" stroke-width="2" d="M599,-324C599,-324 569,-324 569,-324 563,-324 557,-318 557,-312 557,-312 557,-300 557,-300 557,-294 563,-288 569,-288 569,-288 599,-288 599,-288 605,-288 611,-294 611,-300 611,-300 611,-312 611,-312 611,-318 605,-324 599,-324"/>
<text text-anchor="middle" x="584" y="-303.5" font-family="sans" font-size="10.00">cog2</text>
</g>
<!-- 20&#45;&gt;16 -->
<g id="edge24" class="edge">
<title>20&#45;&gt;16</title>
<path fill="none" stroke="grey" stroke-width="2" d="M566.2,-287.7C557.4,-279.14 546.62,-268.66 537,-259.3"/>
<polygon fill="grey" stroke="grey" stroke-width="2" points="539.2,-256.57 529.59,-252.1 534.32,-261.58 539.2,-256.57"/>
</g>
<!-- 21&#45;&gt;20 -->
<g id="edge31" class="edge">
<title>21&#45;&gt;20</title>
<path fill="none" stroke="grey" stroke-width="2" d="M571.2,-359.7C573.1,-351.9 575.38,-342.51 577.48,-333.83"/>
<polygon fill="grey" stroke="grey" stroke-width="2" points="580.89,-334.65 579.85,-324.1 574.08,-333 580.89,-334.65"/>
</g>
<!-- 22&#45;&gt;16 -->
<g id="edge25" class="edge">
<title>22&#45;&gt;16</title>
<path fill="none" stroke="grey" stroke-width="2" d="M380.12,-359.71C380.03,-340.27 382.74,-308.7 399,-288 416.24,-266.06 444.72,-252.78 468.78,-245"/>
<polygon fill="grey" stroke="grey" stroke-width="2" points="469.86,-248.33 478.43,-242.09 467.84,-241.63 469.86,-248.33"/>
</g>
<!-- 23&#45;&gt;16 -->
<g id="edge26" class="edge">
<title>23&#45;&gt;16</title>
<path fill="none" stroke="grey" stroke-width="2" d="M512,-287.7C512,-279.98 512,-270.71 512,-262.11"/>
<polygon fill="grey" stroke="grey" stroke-width="2" points="515.5,-262.1 512,-252.1 508.5,-262.1 515.5,-262.1"/>
</g>
<!-- 24 -->
<g id="node25" class="node">
<title>24</title>
<path fill="none" stroke="#56b1d8" stroke-width="2" d="M454.5,-324C454.5,-324 419.5,-324 419.5,-324 413.5,-324 407.5,-318 407.5,-312 407.5,-312 407.5,-300 407.5,-300 407.5,-294 413.5,-288 419.5,-288 419.5,-288 454.5,-288 454.5,-288 460.5,-288 466.5,-294 466.5,-300 466.5,-300 466.5,-312 466.5,-312 466.5,-318 460.5,-324 454.5,-324"/>
<text text-anchor="middle" x="437" y="-303.5" font-family="sans" font-size="10.00">merops2</text>
</g>
<!-- 24&#45;&gt;16 -->
<g id="edge27" class="edge">
<title>24&#45;&gt;16</title>
<path fill="none" stroke="grey" stroke-width="2" d="M455.54,-287.7C464.8,-279.05 476.16,-268.45 486.26,-259.03"/>
<polygon fill="grey" stroke="grey" stroke-width="2" points="488.75,-261.49 493.67,-252.1 483.98,-256.37 488.75,-261.49"/>
</g>
<!-- 25&#45;&gt;24 -->
<g id="edge37" class="edge">
<title>25&#45;&gt;24</title>
<path fill="none" stroke="grey" stroke-width="2" d="M451.3,-359.7C449.19,-351.9 446.64,-342.51 444.28,-333.83"/>
<polygon fill="grey" stroke="grey" stroke-width="2" points="447.64,-332.84 441.64,-324.1 440.88,-334.67 447.64,-332.84"/>
</g>
<!-- 26 -->
<g id="node27" class="node">
<title>26</title>
<path fill="none" stroke="#bed856" stroke-width="2" d="M840.5,-252C840.5,-252 797.5,-252 797.5,-252 791.5,-252 785.5,-246 785.5,-240 785.5,-240 785.5,-228 785.5,-228 785.5,-222 791.5,-216 797.5,-216 797.5,-216 840.5,-216 840.5,-216 846.5,-216 852.5,-222 852.5,-228 852.5,-228 852.5,-240 852.5,-240 852.5,-246 846.5,-252 840.5,-252"/>
<text text-anchor="middle" x="819" y="-231.5" font-family="sans" font-size="10.00">ensure_all</text>
</g>
<!-- 26&#45;&gt;1 -->
<g id="edge5" class="edge">
<title>26&#45;&gt;1</title>
<path fill="none" stroke="grey" stroke-width="2" d="M785.27,-225.31C727.25,-212.08 609.04,-185.13 548.9,-171.41"/>
<polygon fill="grey" stroke="grey" stroke-width="2" points="549.6,-167.98 539.07,-169.17 548.05,-174.81 549.6,-167.98"/>
</g>
<!-- 27 -->
<g id="node28" class="node">
<title>27</title>
<path fill="none" stroke="#56d0d8" stroke-width="2" d="M944,-324C944,-324 914,-324 914,-324 908,-324 902,-318 902,-312 902,-312 902,-300 902,-300 902,-294 908,-288 914,-288 914,-288 944,-288 944,-288 950,-288 956,-294 956,-300 956,-300 956,-312 956,-312 956,-318 950,-324 944,-324"/>
<text text-anchor="middle" x="929" y="-303.5" font-family="sans" font-size="10.00">pfam2</text>
</g>
<!-- 27&#45;&gt;26 -->
<g id="edge40" class="edge">
<title>27&#45;&gt;26</title>
<path fill="none" stroke="grey" stroke-width="2" d="M902.09,-287.88C887.84,-278.81 870.15,-267.55 854.76,-257.76"/>
<polygon fill="grey" stroke="grey" stroke-width="2" points="856.33,-254.61 846.01,-252.19 852.57,-260.51 856.33,-254.61"/>
</g>
<!-- 28&#45;&gt;27 -->
<g id="edge45" class="edge">
<title>28&#45;&gt;27</title>
<path fill="none" stroke="grey" stroke-width="2" d="M932.01,-359.7C931.57,-351.98 931.04,-342.71 930.55,-334.11"/>
<polygon fill="grey" stroke="grey" stroke-width="2" points="934.04,-333.89 929.98,-324.1 927.05,-334.29 934.04,-333.89"/>
</g>
<!-- 29 -->
<g id="node30" class="node">
<title>29</title>
<path fill="none" stroke="#d89556" stroke-width="2" stroke-dasharray="5,2" d="M990.5,-468C990.5,-468 875.5,-468 875.5,-468 869.5,-468 863.5,-462 863.5,-456 863.5,-456 863.5,-444 863.5,-444 863.5,-438 869.5,-432 875.5,-432 875.5,-432 990.5,-432 990.5,-432 996.5,-432 1002.5,-438 1002.5,-444 1002.5,-444 1002.5,-456 1002.5,-456 1002.5,-462 996.5,-468 990.5,-468"/>
<text text-anchor="middle" x="933" y="-453" font-family="sans" font-size="10.00">prokka</text>
<text text-anchor="middle" x="933" y="-442" font-family="sans" font-size="10.00">genome: Aq_sp_Aq135_2</text>
</g>
<!-- 29&#45;&gt;28 -->
<g id="edge46" class="edge">
<title>29&#45;&gt;28</title>
<path fill="none" stroke="grey" stroke-width="2" d="M933,-431.7C933,-423.98 933,-414.71 933,-406.11"/>
<polygon fill="grey" stroke="grey" stroke-width="2" points="936.5,-406.1 933,-396.1 929.5,-406.1 936.5,-406.1"/>
</g>
<!-- 29&#45;&gt;31 -->
<g id="edge49" class="edge">
<title>29&#45;&gt;31</title>
<path fill="none" stroke="grey" stroke-width="2" d="M915.2,-431.7C906.4,-423.14 895.62,-412.66 886,-403.3"/>
<polygon fill="grey" stroke="grey" stroke-width="2" points="888.2,-400.57 878.59,-396.1 883.32,-405.58 888.2,-400.57"/>
</g>
<!-- 29&#45;&gt;32 -->
<g id="edge51" class="edge">
<title>29&#45;&gt;32</title>
<path fill="none" stroke="grey" stroke-width="2" d="M867.8,-431.92C835.69,-423.01 796.32,-411.36 753.55,-396"/>
<polygon fill="grey" stroke="grey" stroke-width="2" points="754.68,-392.68 744.08,-392.56 752.29,-399.26 754.68,-392.68"/>
</g>
<!-- 33 -->
<g id="node34" class="node">
<title>33</title>
<path fill="none" stroke="#d8b456" stroke-width="2" stroke-dasharray="5,2" d="M1016,-324C1016,-324 986,-324 986,-324 980,-324 974,-318 974,-312 974,-312 974,-300 974,-300 974,-294 980,-288 986,-288 986,-288 1016,-288 1016,-288 1022,-288 1028,-294 1028,-300 1028,-300 1028,-312 1028,-312 1028,-318 1022,-324 1016,-324"/>
<text text-anchor="middle" x="1001" y="-303.5" font-family="sans" font-size="10.00">kegg</text>
</g>
<!-- 29&#45;&gt;33 -->
<g id="edge53" class="edge">
<title>29&#45;&gt;33</title>
<path fill="none" stroke="grey" stroke-width="2" d="M946.5,-431.54C953.82,-421.52 962.64,-408.49 969,-396 979.2,-375.97 987.64,-351.91 993.29,-333.86"/>
<polygon fill="grey" stroke="grey" stroke-width="2" points="996.65,-334.85 996.21,-324.26 989.95,-332.81 996.65,-334.85"/>
</g>
<!-- 29&#45;&gt;35 -->
<g id="edge55" class="edge">
<title>29&#45;&gt;35</title>
<path fill="none" stroke="grey" stroke-width="2" d="M897.77,-431.88C875.77,-421.18 847.51,-407.44 825.3,-396.65"/>
<polygon fill="grey" stroke="grey" stroke-width="2" points="826.72,-393.44 816.2,-392.22 823.66,-399.74 826.72,-393.44"/>
</g>
<!-- 30 -->
<g id="node31" class="node">
<title>30</title>
<path fill="none" stroke="#88d856" stroke-width="2" d="M872,-324C872,-324 842,-324 842,-324 836,-324 830,-318 830,-312 830,-312 830,-300 830,-300 830,-294 836,-288 842,-288 842,-288 872,-288 872,-288 878,-288 884,-294 884,-300 884,-300 884,-312 884,-312 884,-318 878,-324 872,-324"/>
<text text-anchor="middle" x="857" y="-303.5" font-family="sans" font-size="10.00">cog2</text>
</g>
<!-- 30&#45;&gt;26 -->
<g id="edge41" class="edge">
<title>30&#45;&gt;26</title>
<path fill="none" stroke="grey" stroke-width="2" d="M847.61,-287.7C843.24,-279.64 837.94,-269.89 833.1,-260.98"/>
<polygon fill="grey" stroke="grey" stroke-width="2" points="836.13,-259.22 828.29,-252.1 829.98,-262.56 836.13,-259.22"/>
</g>
<!-- 31&#45;&gt;30 -->
<g id="edge48" class="edge">
<title>31&#45;&gt;30</title>
<path fill="none" stroke="grey" stroke-width="2" d="M860.01,-359.7C859.57,-351.98 859.04,-342.71 858.55,-334.11"/>
<polygon fill="grey" stroke="grey" stroke-width="2" points="862.04,-333.89 857.98,-324.1 855.05,-334.29 862.04,-333.89"/>
</g>
<!-- 32&#45;&gt;26 -->
<g id="edge42" class="edge">
<title>32&#45;&gt;26</title>
<path fill="none" stroke="grey" stroke-width="2" d="M716.52,-359.78C720.01,-340.68 727.83,-309.7 744,-288 752.82,-276.17 765.06,-265.97 777.1,-257.76"/>
<polygon fill="grey" stroke="grey" stroke-width="2" points="779.28,-260.51 785.78,-252.14 775.48,-254.64 779.28,-260.51"/>
</g>
<!-- 33&#45;&gt;26 -->
<g id="edge43" class="edge">
<title>33&#45;&gt;26</title>
<path fill="none" stroke="grey" stroke-width="2" d="M973.99,-291.92C970.98,-290.55 967.93,-289.22 965,-288 930.89,-273.79 891.48,-259.61 862.2,-249.5"/>
<polygon fill="grey" stroke="grey" stroke-width="2" points="863.28,-246.17 852.68,-246.23 861,-252.79 863.28,-246.17"/>
</g>
<!-- 34 -->
<g id="node35" class="node">
<title>34</title>
<path fill="none" stroke="#56b1d8" stroke-width="2" d="M799.5,-324C799.5,-324 764.5,-324 764.5,-324 758.5,-324 752.5,-318 752.5,-312 752.5,-312 752.5,-300 752.5,-300 752.5,-294 758.5,-288 764.5,-288 764.5,-288 799.5,-288 799.5,-288 805.5,-288 811.5,-294 811.5,-300 811.5,-300 811.5,-312 811.5,-312 811.5,-318 805.5,-324 799.5,-324"/>
<text text-anchor="middle" x="782" y="-303.5" font-family="sans" font-size="10.00">merops2</text>
</g>
<!-- 34&#45;&gt;26 -->
<g id="edge44" class="edge">
<title>34&#45;&gt;26</title>
<path fill="none" stroke="grey" stroke-width="2" d="M791.15,-287.7C795.4,-279.64 800.56,-269.89 805.27,-260.98"/>
<polygon fill="grey" stroke="grey" stroke-width="2" points="808.38,-262.58 809.96,-252.1 802.19,-259.31 808.38,-262.58"/>
</g>
<!-- 35&#45;&gt;34 -->
<g id="edge54" class="edge">
<title>35&#45;&gt;34</title>
<path fill="none" stroke="grey" stroke-width="2" d="M787.27,-359.7C786.5,-351.98 785.57,-342.71 784.71,-334.11"/>
<polygon fill="grey" stroke="grey" stroke-width="2" points="788.19,-333.71 783.71,-324.1 781.22,-334.4 788.19,-333.71"/>
</g>
<!-- 36&#45;&gt;0 -->
<g id="edge2" class="edge">
<title>36&#45;&gt;0</title>
<path fill="none" stroke="grey" stroke-width="2" d="M539.1,-71.7C535,-63.73 530.05,-54.1 525.51,-45.26"/>
<polygon fill="grey" stroke="grey" stroke-width="2" points="528.48,-43.4 520.8,-36.1 522.26,-46.6 528.48,-43.4"/>
</g>
</g>
</svg>
