<?xml version="1.0" encoding="UTF-8" standalone="no"?>
<!DOCTYPE svg PUBLIC "-//W3C//DTD SVG 1.1//EN"
 "http://www.w3.org/Graphics/SVG/1.1/DTD/svg11.dtd">
<!-- Generated by graphviz version 2.42.3 (20191010.1750)
 -->
<!-- Title: snakemake_dag Pages: 1 -->
<svg width="832pt" height="476pt"
 viewBox="0.00 0.00 832.00 476.00" xmlns="http://www.w3.org/2000/svg" xmlns:xlink="http://www.w3.org/1999/xlink">
<g id="graph0" class="graph" transform="scale(1 1) rotate(0) translate(4 472)">
<title>snakemake_dag</title>
<polygon fill="white" stroke="transparent" points="-4,4 -4,-472 828,-472 828,4 -4,4"/>
<!-- 0 -->
<g id="node1" class="node">
<title>0</title>
<path fill="none" stroke="#88d856" stroke-width="2" d="M445,-36C445,-36 415,-36 415,-36 409,-36 403,-30 403,-24 403,-24 403,-12 403,-12 403,-6 409,0 415,0 415,0 445,0 445,0 451,0 457,-6 457,-12 457,-12 457,-24 457,-24 457,-30 451,-36 445,-36"/>
<text text-anchor="middle" x="430" y="-15.5" font-family="sans" font-size="10.00">all</text>
</g>
<!-- 1 -->
<g id="node2" class="node">
<title>1</title>
<path fill="none" stroke="#59d856" stroke-width="2" d="M300,-108C300,-108 270,-108 270,-108 264,-108 258,-102 258,-96 258,-96 258,-84 258,-84 258,-78 264,-72 270,-72 270,-72 300,-72 300,-72 306,-72 312,-78 312,-84 312,-84 312,-96 312,-96 312,-102 306,-108 300,-108"/>
<text text-anchor="middle" x="285" y="-87.5" font-family="sans" font-size="10.00">join_all</text>
</g>
<!-- 1&#45;&gt;0 -->
<g id="edge1" class="edge">
<title>1&#45;&gt;0</title>
<path fill="none" stroke="grey" stroke-width="2" d="M312.27,-75.83C335.26,-64.74 368.35,-48.76 393.59,-36.58"/>
<polygon fill="grey" stroke="grey" stroke-width="2" points="395.37,-39.61 402.85,-32.11 392.32,-33.3 395.37,-39.61"/>
</g>
<!-- 2 -->
<g id="node3" class="node">
<title>2</title>
<path fill="none" stroke="#d88d56" stroke-width="2" stroke-dasharray="5,2" d="M195.5,-180C195.5,-180 152.5,-180 152.5,-180 146.5,-180 140.5,-174 140.5,-168 140.5,-168 140.5,-156 140.5,-156 140.5,-150 146.5,-144 152.5,-144 152.5,-144 195.5,-144 195.5,-144 201.5,-144 207.5,-150 207.5,-156 207.5,-156 207.5,-168 207.5,-168 207.5,-174 201.5,-180 195.5,-180"/>
<text text-anchor="middle" x="174" y="-159.5" font-family="sans" font-size="10.00">ensure_all</text>
</g>
<!-- 2&#45;&gt;1 -->
<g id="edge4" class="edge">
<title>2&#45;&gt;1</title>
<path fill="none" stroke="grey" stroke-width="2" d="M201.15,-143.88C215.53,-134.81 233.38,-123.55 248.91,-113.76"/>
<polygon fill="grey" stroke="grey" stroke-width="2" points="251.15,-116.48 257.74,-108.19 247.42,-110.56 251.15,-116.48"/>
</g>
<!-- 3 -->
<g id="node4" class="node">
<title>3</title>
<path fill="none" stroke="#d8bc56" stroke-width="2" stroke-dasharray="5,2" d="M42,-252C42,-252 12,-252 12,-252 6,-252 0,-246 0,-240 0,-240 0,-228 0,-228 0,-222 6,-216 12,-216 12,-216 42,-216 42,-216 48,-216 54,-222 54,-228 54,-228 54,-240 54,-240 54,-246 48,-252 42,-252"/>
<text text-anchor="middle" x="27" y="-231.5" font-family="sans" font-size="10.00">pfam</text>
</g>
<!-- 3&#45;&gt;2 -->
<g id="edge5" class="edge">
<title>3&#45;&gt;2</title>
<path fill="none" stroke="grey" stroke-width="2" d="M54.31,-220C75.88,-209.73 106.38,-195.2 131.19,-183.39"/>
<polygon fill="grey" stroke="grey" stroke-width="2" points="132.87,-186.46 140.39,-179 129.86,-180.14 132.87,-186.46"/>
</g>
<!-- 4 -->
<g id="node5" class="node">
<title>4</title>
<path fill="none" stroke="#568ad8" stroke-width="2" stroke-dasharray="5,2" d="M189,-396C189,-396 85,-396 85,-396 79,-396 73,-390 73,-384 73,-384 73,-372 73,-372 73,-366 79,-360 85,-360 85,-360 189,-360 189,-360 195,-360 201,-366 201,-372 201,-372 201,-384 201,-384 201,-390 195,-396 189,-396"/>
<text text-anchor="middle" x="137" y="-381" font-family="sans" font-size="10.00">prokka</text>
<text text-anchor="middle" x="137" y="-370" font-family="sans" font-size="10.00">genome: Aq_sp_Aq349</text>
</g>
<!-- 4&#45;&gt;3 -->
<g id="edge9" class="edge">
<title>4&#45;&gt;3</title>
<path fill="none" stroke="grey" stroke-width="2" d="M109.32,-359.89C95.86,-350.55 80.22,-338.02 69,-324 53.98,-305.23 42.78,-280.2 35.74,-261.47"/>
<polygon fill="grey" stroke="grey" stroke-width="2" points="39.03,-260.28 32.35,-252.05 32.45,-262.65 39.03,-260.28"/>
</g>
<!-- 7 -->
<g id="node8" class="node">
<title>7</title>
<path fill="none" stroke="#d85656" stroke-width="2" stroke-dasharray="5,2" d="M120,-324C120,-324 90,-324 90,-324 84,-324 78,-318 78,-312 78,-312 78,-300 78,-300 78,-294 84,-288 90,-288 90,-288 120,-288 120,-288 126,-288 132,-294 132,-300 132,-300 132,-312 132,-312 132,-318 126,-324 120,-324"/>
<text text-anchor="middle" x="105" y="-303.5" font-family="sans" font-size="10.00">cog</text>
</g>
<!-- 4&#45;&gt;7 -->
<g id="edge12" class="edge">
<title>4&#45;&gt;7</title>
<path fill="none" stroke="grey" stroke-width="2" d="M129.09,-359.7C125.45,-351.73 121.05,-342.1 117.01,-333.26"/>
<polygon fill="grey" stroke="grey" stroke-width="2" points="120.16,-331.74 112.82,-324.1 113.79,-334.65 120.16,-331.74"/>
</g>
<!-- 8 -->
<g id="node9" class="node">
<title>8</title>
<path fill="none" stroke="#56d8c1" stroke-width="2" stroke-dasharray="5,2" d="M192,-252C192,-252 156,-252 156,-252 150,-252 144,-246 144,-240 144,-240 144,-228 144,-228 144,-222 150,-216 156,-216 156,-216 192,-216 192,-216 198,-216 204,-222 204,-228 204,-228 204,-240 204,-240 204,-246 198,-252 192,-252"/>
<text text-anchor="middle" x="174" y="-231.5" font-family="sans" font-size="10.00">cazymes</text>
</g>
<!-- 4&#45;&gt;8 -->
<g id="edge13" class="edge">
<title>4&#45;&gt;8</title>
<path fill="none" stroke="grey" stroke-width="2" d="M141.46,-359.87C147.8,-335.56 159.46,-290.82 166.96,-262.01"/>
<polygon fill="grey" stroke="grey" stroke-width="2" points="170.39,-262.75 169.52,-252.19 163.61,-260.98 170.39,-262.75"/>
</g>
<!-- 9 -->
<g id="node10" class="node">
<title>9</title>
<path fill="none" stroke="#56c1d8" stroke-width="2" stroke-dasharray="5,2" d="M264,-252C264,-252 234,-252 234,-252 228,-252 222,-246 222,-240 222,-240 222,-228 222,-228 222,-222 228,-216 234,-216 234,-216 264,-216 264,-216 270,-216 276,-222 276,-228 276,-228 276,-240 276,-240 276,-246 270,-252 264,-252"/>
<text text-anchor="middle" x="249" y="-231.5" font-family="sans" font-size="10.00">kegg</text>
</g>
<!-- 4&#45;&gt;9 -->
<g id="edge14" class="edge">
<title>4&#45;&gt;9</title>
<path fill="none" stroke="grey" stroke-width="2" d="M150.51,-359.87C170.1,-335.03 206.53,-288.85 229.17,-260.14"/>
<polygon fill="grey" stroke="grey" stroke-width="2" points="232,-262.21 235.44,-252.19 226.5,-257.87 232,-262.21"/>
</g>
<!-- 5 -->
<g id="node6" class="node">
<title>5</title>
<path fill="none" stroke="#bed856" stroke-width="2" stroke-dasharray="5,2" d="M198,-468C198,-468 76,-468 76,-468 70,-468 64,-462 64,-456 64,-456 64,-444 64,-444 64,-438 70,-432 76,-432 76,-432 198,-432 198,-432 204,-432 210,-438 210,-444 210,-444 210,-456 210,-456 210,-462 204,-468 198,-468"/>
<text text-anchor="middle" x="137" y="-453" font-family="sans" font-size="10.00">get_data</text>
<text text-anchor="middle" x="137" y="-442" font-family="sans" font-size="10.00">genome: Aq_sp_Aq349.fna</text>
</g>
<!-- 5&#45;&gt;4 -->
<g id="edge10" class="edge">
<title>5&#45;&gt;4</title>
<path fill="none" stroke="grey" stroke-width="2" d="M137,-431.7C137,-423.98 137,-414.71 137,-406.11"/>
<polygon fill="grey" stroke="grey" stroke-width="2" points="140.5,-406.1 137,-396.1 133.5,-406.1 140.5,-406.1"/>
</g>
<!-- 6 -->
<g id="node7" class="node">
<title>6</title>
<path fill="none" stroke="#56d88a" stroke-width="2" stroke-dasharray="5,2" d="M114,-252C114,-252 84,-252 84,-252 78,-252 72,-246 72,-240 72,-240 72,-228 72,-228 72,-222 78,-216 84,-216 84,-216 114,-216 114,-216 120,-216 126,-222 126,-228 126,-228 126,-240 126,-240 126,-246 120,-252 114,-252"/>
<text text-anchor="middle" x="99" y="-231.5" font-family="sans" font-size="10.00">cog2</text>
</g>
<!-- 6&#45;&gt;2 -->
<g id="edge6" class="edge">
<title>6&#45;&gt;2</title>
<path fill="none" stroke="grey" stroke-width="2" d="M117.54,-215.7C126.8,-207.05 138.16,-196.45 148.26,-187.03"/>
<polygon fill="grey" stroke="grey" stroke-width="2" points="150.75,-189.49 155.67,-180.1 145.98,-184.37 150.75,-189.49"/>
</g>
<!-- 7&#45;&gt;6 -->
<g id="edge11" class="edge">
<title>7&#45;&gt;6</title>
<path fill="none" stroke="grey" stroke-width="2" d="M103.52,-287.7C102.86,-279.98 102.06,-270.71 101.32,-262.11"/>
<polygon fill="grey" stroke="grey" stroke-width="2" points="104.81,-261.77 100.47,-252.1 97.83,-262.37 104.81,-261.77"/>
</g>
<!-- 8&#45;&gt;2 -->
<g id="edge7" class="edge">
<title>8&#45;&gt;2</title>
<path fill="none" stroke="grey" stroke-width="2" d="M174,-215.7C174,-207.98 174,-198.71 174,-190.11"/>
<polygon fill="grey" stroke="grey" stroke-width="2" points="177.5,-190.1 174,-180.1 170.5,-190.1 177.5,-190.1"/>
</g>
<!-- 9&#45;&gt;2 -->
<g id="edge8" class="edge">
<title>9&#45;&gt;2</title>
<path fill="none" stroke="grey" stroke-width="2" d="M230.46,-215.7C221.2,-207.05 209.84,-196.45 199.74,-187.03"/>
<polygon fill="grey" stroke="grey" stroke-width="2" points="202.02,-184.37 192.33,-180.1 197.25,-189.49 202.02,-184.37"/>
</g>
<!-- 10 -->
<g id="node11" class="node">
<title>10</title>
<path fill="none" stroke="#59d856" stroke-width="2" d="M445,-108C445,-108 415,-108 415,-108 409,-108 403,-102 403,-96 403,-96 403,-84 403,-84 403,-78 409,-72 415,-72 415,-72 445,-72 445,-72 451,-72 457,-78 457,-84 457,-84 457,-96 457,-96 457,-102 451,-108 445,-108"/>
<text text-anchor="middle" x="430" y="-87.5" font-family="sans" font-size="10.00">join_all</text>
</g>
<!-- 10&#45;&gt;0 -->
<g id="edge2" class="edge">
<title>10&#45;&gt;0</title>
<path fill="none" stroke="grey" stroke-width="2" d="M430,-71.7C430,-63.98 430,-54.71 430,-46.11"/>
<polygon fill="grey" stroke="grey" stroke-width="2" points="433.5,-46.1 430,-36.1 426.5,-46.1 433.5,-46.1"/>
</g>
<!-- 11 -->
<g id="node12" class="node">
<title>11</title>
<path fill="none" stroke="#d88d56" stroke-width="2" stroke-dasharray="5,2" d="M451.5,-180C451.5,-180 408.5,-180 408.5,-180 402.5,-180 396.5,-174 396.5,-168 396.5,-168 396.5,-156 396.5,-156 396.5,-150 402.5,-144 408.5,-144 408.5,-144 451.5,-144 451.5,-144 457.5,-144 463.5,-150 463.5,-156 463.5,-156 463.5,-168 463.5,-168 463.5,-174 457.5,-180 451.5,-180"/>
<text text-anchor="middle" x="430" y="-159.5" font-family="sans" font-size="10.00">ensure_all</text>
</g>
<!-- 11&#45;&gt;10 -->
<g id="edge15" class="edge">
<title>11&#45;&gt;10</title>
<path fill="none" stroke="grey" stroke-width="2" d="M430,-143.7C430,-135.98 430,-126.71 430,-118.11"/>
<polygon fill="grey" stroke="grey" stroke-width="2" points="433.5,-118.1 430,-108.1 426.5,-118.1 433.5,-118.1"/>
</g>
<!-- 12 -->
<g id="node13" class="node">
<title>12</title>
<path fill="none" stroke="#d8bc56" stroke-width="2" stroke-dasharray="5,2" d="M336,-252C336,-252 306,-252 306,-252 300,-252 294,-246 294,-240 294,-240 294,-228 294,-228 294,-222 300,-216 306,-216 306,-216 336,-216 336,-216 342,-216 348,-222 348,-228 348,-228 348,-240 348,-240 348,-246 342,-252 336,-252"/>
<text text-anchor="middle" x="321" y="-231.5" font-family="sans" font-size="10.00">pfam</text>
</g>
<!-- 12&#45;&gt;11 -->
<g id="edge16" class="edge">
<title>12&#45;&gt;11</title>
<path fill="none" stroke="grey" stroke-width="2" d="M347.66,-215.88C361.78,-206.81 379.31,-195.55 394.56,-185.76"/>
<polygon fill="grey" stroke="grey" stroke-width="2" points="396.71,-188.54 403.23,-180.19 392.93,-182.65 396.71,-188.54"/>
</g>
<!-- 13 -->
<g id="node14" class="node">
<title>13</title>
<path fill="none" stroke="#568ad8" stroke-width="2" stroke-dasharray="5,2" d="M472,-396C472,-396 368,-396 368,-396 362,-396 356,-390 356,-384 356,-384 356,-372 356,-372 356,-366 362,-360 368,-360 368,-360 472,-360 472,-360 478,-360 484,-366 484,-372 484,-372 484,-384 484,-384 484,-390 478,-396 472,-396"/>
<text text-anchor="middle" x="420" y="-381" font-family="sans" font-size="10.00">prokka</text>
<text text-anchor="middle" x="420" y="-370" font-family="sans" font-size="10.00">genome: Aq_sp_Aq135</text>
</g>
<!-- 13&#45;&gt;12 -->
<g id="edge20" class="edge">
<title>13&#45;&gt;12</title>
<path fill="none" stroke="grey" stroke-width="2" d="M394.08,-359.77C381.55,-350.39 367.08,-337.88 357,-324 343.37,-305.22 333.92,-280.55 328.13,-261.94"/>
<polygon fill="grey" stroke="grey" stroke-width="2" points="331.47,-260.91 325.29,-252.31 324.76,-262.89 331.47,-260.91"/>
</g>
<!-- 16 -->
<g id="node17" class="node">
<title>16</title>
<path fill="none" stroke="#d85656" stroke-width="2" stroke-dasharray="5,2" d="M408,-324C408,-324 378,-324 378,-324 372,-324 366,-318 366,-312 366,-312 366,-300 366,-300 366,-294 372,-288 378,-288 378,-288 408,-288 408,-288 414,-288 420,-294 420,-300 420,-300 420,-312 420,-312 420,-318 414,-324 408,-324"/>
<text text-anchor="middle" x="393" y="-303.5" font-family="sans" font-size="10.00">cog</text>
</g>
<!-- 13&#45;&gt;16 -->
<g id="edge23" class="edge">
<title>13&#45;&gt;16</title>
<path fill="none" stroke="grey" stroke-width="2" d="M413.33,-359.7C410.29,-351.81 406.62,-342.3 403.24,-333.55"/>
<polygon fill="grey" stroke="grey" stroke-width="2" points="406.46,-332.17 399.6,-324.1 399.93,-334.69 406.46,-332.17"/>
</g>
<!-- 17 -->
<g id="node18" class="node">
<title>17</title>
<path fill="none" stroke="#56d8c1" stroke-width="2" stroke-dasharray="5,2" d="M486,-252C486,-252 450,-252 450,-252 444,-252 438,-246 438,-240 438,-240 438,-228 438,-228 438,-222 444,-216 450,-216 450,-216 486,-216 486,-216 492,-216 498,-222 498,-228 498,-228 498,-240 498,-240 498,-246 492,-252 486,-252"/>
<text text-anchor="middle" x="468" y="-231.5" font-family="sans" font-size="10.00">cazymes</text>
</g>
<!-- 13&#45;&gt;17 -->
<g id="edge24" class="edge">
<title>13&#45;&gt;17</title>
<path fill="none" stroke="grey" stroke-width="2" d="M425.79,-359.87C434.01,-335.56 449.13,-290.82 458.87,-262.01"/>
<polygon fill="grey" stroke="grey" stroke-width="2" points="462.3,-262.78 462.19,-252.19 455.67,-260.54 462.3,-262.78"/>
</g>
<!-- 18 -->
<g id="node19" class="node">
<title>18</title>
<path fill="none" stroke="#56c1d8" stroke-width="2" stroke-dasharray="5,2" d="M518,-324C518,-324 488,-324 488,-324 482,-324 476,-318 476,-312 476,-312 476,-300 476,-300 476,-294 482,-288 488,-288 488,-288 518,-288 518,-288 524,-288 530,-294 530,-300 530,-300 530,-312 530,-312 530,-318 524,-324 518,-324"/>
<text text-anchor="middle" x="503" y="-303.5" font-family="sans" font-size="10.00">kegg</text>
</g>
<!-- 13&#45;&gt;18 -->
<g id="edge25" class="edge">
<title>13&#45;&gt;18</title>
<path fill="none" stroke="grey" stroke-width="2" d="M440.52,-359.7C450.87,-350.97 463.59,-340.24 474.84,-330.75"/>
<polygon fill="grey" stroke="grey" stroke-width="2" points="477.33,-333.23 482.72,-324.1 472.82,-327.88 477.33,-333.23"/>
</g>
<!-- 14 -->
<g id="node15" class="node">
<title>14</title>
<path fill="none" stroke="#bed856" stroke-width="2" stroke-dasharray="5,2" d="M481,-468C481,-468 359,-468 359,-468 353,-468 347,-462 347,-456 347,-456 347,-444 347,-444 347,-438 353,-432 359,-432 359,-432 481,-432 481,-432 487,-432 493,-438 493,-444 493,-444 493,-456 493,-456 493,-462 487,-468 481,-468"/>
<text text-anchor="middle" x="420" y="-453" font-family="sans" font-size="10.00">get_data</text>
<text text-anchor="middle" x="420" y="-442" font-family="sans" font-size="10.00">genome: Aq_sp_Aq135.fna</text>
</g>
<!-- 14&#45;&gt;13 -->
<g id="edge21" class="edge">
<title>14&#45;&gt;13</title>
<path fill="none" stroke="grey" stroke-width="2" d="M420,-431.7C420,-423.98 420,-414.71 420,-406.11"/>
<polygon fill="grey" stroke="grey" stroke-width="2" points="423.5,-406.1 420,-396.1 416.5,-406.1 423.5,-406.1"/>
</g>
<!-- 15 -->
<g id="node16" class="node">
<title>15</title>
<path fill="none" stroke="#56d88a" stroke-width="2" stroke-dasharray="5,2" d="M408,-252C408,-252 378,-252 378,-252 372,-252 366,-246 366,-240 366,-240 366,-228 366,-228 366,-222 372,-216 378,-216 378,-216 408,-216 408,-216 414,-216 420,-222 420,-228 420,-228 420,-240 420,-240 420,-246 414,-252 408,-252"/>
<text text-anchor="middle" x="393" y="-231.5" font-family="sans" font-size="10.00">cog2</text>
</g>
<!-- 15&#45;&gt;11 -->
<g id="edge17" class="edge">
<title>15&#45;&gt;11</title>
<path fill="none" stroke="grey" stroke-width="2" d="M402.15,-215.7C406.4,-207.64 411.56,-197.89 416.27,-188.98"/>
<polygon fill="grey" stroke="grey" stroke-width="2" points="419.38,-190.58 420.96,-180.1 413.19,-187.31 419.38,-190.58"/>
</g>
<!-- 16&#45;&gt;15 -->
<g id="edge22" class="edge">
<title>16&#45;&gt;15</title>
<path fill="none" stroke="grey" stroke-width="2" d="M393,-287.7C393,-279.98 393,-270.71 393,-262.11"/>
<polygon fill="grey" stroke="grey" stroke-width="2" points="396.5,-262.1 393,-252.1 389.5,-262.1 396.5,-262.1"/>
</g>
<!-- 17&#45;&gt;11 -->
<g id="edge18" class="edge">
<title>17&#45;&gt;11</title>
<path fill="none" stroke="grey" stroke-width="2" d="M458.61,-215.7C454.24,-207.64 448.94,-197.89 444.1,-188.98"/>
<polygon fill="grey" stroke="grey" stroke-width="2" points="447.13,-187.22 439.29,-180.1 440.98,-190.56 447.13,-187.22"/>
</g>
<!-- 18&#45;&gt;11 -->
<g id="edge19" class="edge">
<title>18&#45;&gt;11</title>
<path fill="none" stroke="grey" stroke-width="2" d="M508.66,-287.82C513.78,-269.03 518.87,-238.59 507,-216 499.44,-201.62 486.03,-190.39 472.49,-182.03"/>
<polygon fill="grey" stroke="grey" stroke-width="2" points="474.05,-178.9 463.63,-176.96 470.57,-184.97 474.05,-178.9"/>
</g>
<!-- 19 -->
<g id="node20" class="node">
<title>19</title>
<path fill="none" stroke="#59d856" stroke-width="2" d="M608,-108C608,-108 578,-108 578,-108 572,-108 566,-102 566,-96 566,-96 566,-84 566,-84 566,-78 572,-72 578,-72 578,-72 608,-72 608,-72 614,-72 620,-78 620,-84 620,-84 620,-96 620,-96 620,-102 614,-108 608,-108"/>
<text text-anchor="middle" x="593" y="-87.5" font-family="sans" font-size="10.00">join_all</text>
</g>
<!-- 19&#45;&gt;0 -->
<g id="edge3" class="edge">
<title>19&#45;&gt;0</title>
<path fill="none" stroke="grey" stroke-width="2" d="M565.72,-77.28C538.49,-65.59 496.47,-47.55 466.41,-34.64"/>
<polygon fill="grey" stroke="grey" stroke-width="2" points="467.67,-31.37 457.1,-30.64 464.91,-37.8 467.67,-31.37"/>
</g>
<!-- 20 -->
<g id="node21" class="node">
<title>20</title>
<path fill="none" stroke="#d88d56" stroke-width="2" stroke-dasharray="5,2" d="M668.5,-180C668.5,-180 625.5,-180 625.5,-180 619.5,-180 613.5,-174 613.5,-168 613.5,-168 613.5,-156 613.5,-156 613.5,-150 619.5,-144 625.5,-144 625.5,-144 668.5,-144 668.5,-144 674.5,-144 680.5,-150 680.5,-156 680.5,-156 680.5,-168 680.5,-168 680.5,-174 674.5,-180 668.5,-180"/>
<text text-anchor="middle" x="647" y="-159.5" font-family="sans" font-size="10.00">ensure_all</text>
</g>
<!-- 20&#45;&gt;19 -->
<g id="edge26" class="edge">
<title>20&#45;&gt;19</title>
<path fill="none" stroke="grey" stroke-width="2" d="M633.65,-143.7C627.24,-135.39 619.44,-125.28 612.39,-116.14"/>
<polygon fill="grey" stroke="grey" stroke-width="2" points="615.07,-113.88 606.19,-108.1 609.53,-118.16 615.07,-113.88"/>
</g>
<!-- 21 -->
<g id="node22" class="node">
<title>21</title>
<path fill="none" stroke="#d8bc56" stroke-width="2" stroke-dasharray="5,2" d="M590,-324C590,-324 560,-324 560,-324 554,-324 548,-318 548,-312 548,-312 548,-300 548,-300 548,-294 554,-288 560,-288 560,-288 590,-288 590,-288 596,-288 602,-294 602,-300 602,-300 602,-312 602,-312 602,-318 596,-324 590,-324"/>
<text text-anchor="middle" x="575" y="-303.5" font-family="sans" font-size="10.00">pfam</text>
</g>
<!-- 21&#45;&gt;20 -->
<g id="edge27" class="edge">
<title>21&#45;&gt;20</title>
<path fill="none" stroke="grey" stroke-width="2" d="M580.73,-287.79C587.11,-269.49 598.2,-239.96 611,-216 615.98,-206.68 622.22,-196.98 628.1,-188.46"/>
<polygon fill="grey" stroke="grey" stroke-width="2" points="631.11,-190.27 634.03,-180.08 625.4,-186.22 631.11,-190.27"/>
</g>
<!-- 22 -->
<g id="node23" class="node">
<title>22</title>
<path fill="none" stroke="#568ad8" stroke-width="2" stroke-dasharray="5,2" d="M736,-396C736,-396 632,-396 632,-396 626,-396 620,-390 620,-384 620,-384 620,-372 620,-372 620,-366 626,-360 632,-360 632,-360 736,-360 736,-360 742,-360 748,-366 748,-372 748,-372 748,-384 748,-384 748,-390 742,-396 736,-396"/>
<text text-anchor="middle" x="684" y="-381" font-family="sans" font-size="10.00">prokka</text>
<text text-anchor="middle" x="684" y="-370" font-family="sans" font-size="10.00">genome: Aq_sp_Aq107</text>
</g>
<!-- 22&#45;&gt;21 -->
<g id="edge31" class="edge">
<title>22&#45;&gt;21</title>
<path fill="none" stroke="grey" stroke-width="2" d="M657.34,-359.88C643.22,-350.81 625.69,-339.55 610.44,-329.76"/>
<polygon fill="grey" stroke="grey" stroke-width="2" points="612.07,-326.65 601.77,-324.19 608.29,-332.54 612.07,-326.65"/>
</g>
<!-- 25 -->
<g id="node26" class="node">
<title>25</title>
<path fill="none" stroke="#d85656" stroke-width="2" stroke-dasharray="5,2" d="M662,-324C662,-324 632,-324 632,-324 626,-324 620,-318 620,-312 620,-312 620,-300 620,-300 620,-294 626,-288 632,-288 632,-288 662,-288 662,-288 668,-288 674,-294 674,-300 674,-300 674,-312 674,-312 674,-318 668,-324 662,-324"/>
<text text-anchor="middle" x="647" y="-303.5" font-family="sans" font-size="10.00">cog</text>
</g>
<!-- 22&#45;&gt;25 -->
<g id="edge34" class="edge">
<title>22&#45;&gt;25</title>
<path fill="none" stroke="grey" stroke-width="2" d="M674.85,-359.7C670.6,-351.64 665.44,-341.89 660.73,-332.98"/>
<polygon fill="grey" stroke="grey" stroke-width="2" points="663.81,-331.31 656.04,-324.1 657.62,-334.58 663.81,-331.31"/>
</g>
<!-- 26 -->
<g id="node27" class="node">
<title>26</title>
<path fill="none" stroke="#56d8c1" stroke-width="2" stroke-dasharray="5,2" d="M740,-324C740,-324 704,-324 704,-324 698,-324 692,-318 692,-312 692,-312 692,-300 692,-300 692,-294 698,-288 704,-288 704,-288 740,-288 740,-288 746,-288 752,-294 752,-300 752,-300 752,-312 752,-312 752,-318 746,-324 740,-324"/>
<text text-anchor="middle" x="722" y="-303.5" font-family="sans" font-size="10.00">cazymes</text>
</g>
<!-- 22&#45;&gt;26 -->
<g id="edge35" class="edge">
<title>22&#45;&gt;26</title>
<path fill="none" stroke="grey" stroke-width="2" d="M693.39,-359.7C697.76,-351.64 703.06,-341.89 707.9,-332.98"/>
<polygon fill="grey" stroke="grey" stroke-width="2" points="711.02,-334.56 712.71,-324.1 704.87,-331.22 711.02,-334.56"/>
</g>
<!-- 27 -->
<g id="node28" class="node">
<title>27</title>
<path fill="none" stroke="#56c1d8" stroke-width="2" stroke-dasharray="5,2" d="M812,-324C812,-324 782,-324 782,-324 776,-324 770,-318 770,-312 770,-312 770,-300 770,-300 770,-294 776,-288 782,-288 782,-288 812,-288 812,-288 818,-288 824,-294 824,-300 824,-300 824,-312 824,-312 824,-318 818,-324 812,-324"/>
<text text-anchor="middle" x="797" y="-303.5" font-family="sans" font-size="10.00">kegg</text>
</g>
<!-- 22&#45;&gt;27 -->
<g id="edge36" class="edge">
<title>22&#45;&gt;27</title>
<path fill="none" stroke="grey" stroke-width="2" d="M711.64,-359.88C726.53,-350.66 745.07,-339.17 761.06,-329.26"/>
<polygon fill="grey" stroke="grey" stroke-width="2" points="762.98,-332.19 769.64,-323.95 759.3,-326.24 762.98,-332.19"/>
</g>
<!-- 23 -->
<g id="node24" class="node">
<title>23</title>
<path fill="none" stroke="#bed856" stroke-width="2" stroke-dasharray="5,2" d="M745,-468C745,-468 623,-468 623,-468 617,-468 611,-462 611,-456 611,-456 611,-444 611,-444 611,-438 617,-432 623,-432 623,-432 745,-432 745,-432 751,-432 757,-438 757,-444 757,-444 757,-456 757,-456 757,-462 751,-468 745,-468"/>
<text text-anchor="middle" x="684" y="-453" font-family="sans" font-size="10.00">get_data</text>
<text text-anchor="middle" x="684" y="-442" font-family="sans" font-size="10.00">genome: Aq_sp_Aq107.fna</text>
</g>
<!-- 23&#45;&gt;22 -->
<g id="edge32" class="edge">
<title>23&#45;&gt;22</title>
<path fill="none" stroke="grey" stroke-width="2" d="M684,-431.7C684,-423.98 684,-414.71 684,-406.11"/>
<polygon fill="grey" stroke="grey" stroke-width="2" points="687.5,-406.1 684,-396.1 680.5,-406.1 687.5,-406.1"/>
</g>
<!-- 24 -->
<g id="node25" class="node">
<title>24</title>
<path fill="none" stroke="#56d88a" stroke-width="2" stroke-dasharray="5,2" d="M662,-252C662,-252 632,-252 632,-252 626,-252 620,-246 620,-240 620,-240 620,-228 620,-228 620,-222 626,-216 632,-216 632,-216 662,-216 662,-216 668,-216 674,-222 674,-228 674,-228 674,-240 674,-240 674,-246 668,-252 662,-252"/>
<text text-anchor="middle" x="647" y="-231.5" font-family="sans" font-size="10.00">cog2</text>
</g>
<!-- 24&#45;&gt;20 -->
<g id="edge28" class="edge">
<title>24&#45;&gt;20</title>
<path fill="none" stroke="grey" stroke-width="2" d="M647,-215.7C647,-207.98 647,-198.71 647,-190.11"/>
<polygon fill="grey" stroke="grey" stroke-width="2" points="650.5,-190.1 647,-180.1 643.5,-190.1 650.5,-190.1"/>
</g>
<!-- 25&#45;&gt;24 -->
<g id="edge33" class="edge">
<title>25&#45;&gt;24</title>
<path fill="none" stroke="grey" stroke-width="2" d="M647,-287.7C647,-279.98 647,-270.71 647,-262.11"/>
<polygon fill="grey" stroke="grey" stroke-width="2" points="650.5,-262.1 647,-252.1 643.5,-262.1 650.5,-262.1"/>
</g>
<!-- 26&#45;&gt;20 -->
<g id="edge29" class="edge">
<title>26&#45;&gt;20</title>
<path fill="none" stroke="grey" stroke-width="2" d="M715.56,-287.83C708.47,-269.57 696.3,-240.07 683,-216 677.89,-206.75 671.61,-197.07 665.74,-188.55"/>
<polygon fill="grey" stroke="grey" stroke-width="2" points="668.45,-186.32 659.84,-180.15 662.73,-190.35 668.45,-186.32"/>
</g>
<!-- 27&#45;&gt;20 -->
<g id="edge30" class="edge">
<title>27&#45;&gt;20</title>
<path fill="none" stroke="grey" stroke-width="2" d="M779.51,-287.79C761.1,-269.75 731.23,-240.66 705,-216 694.81,-206.42 683.47,-196 673.54,-186.96"/>
<polygon fill="grey" stroke="grey" stroke-width="2" points="675.69,-184.18 665.93,-180.05 670.98,-189.37 675.69,-184.18"/>
</g>
</g>
</svg>
